<svg width="24" height="22" viewBox="0 0 24 22" fill="none" xmlns="http://www.w3.org/2000/svg">
<path d="M23.9956 7.17905C23.956 6.5045 23.142 5.97739 21.514 5.57524C21.5688 5.45699 21.5996 5.33396 21.6 5.20624V2.44807H21.5932C21.45 0.150373 11.8972 0.0825806 10.8 0.0825806C9.70281 0.0825806 0.14998 0.150373 0.0068136 2.44807H0V2.49933V5.20743C0.00201586 5.95652 0.982811 6.54277 2.44201 6.97917C2.42201 7.04461 2.41 7.11125 2.40601 7.17905H2.4V7.23031V9.93368C0.827993 10.3326 0.0428168 10.8523 0.0039914 11.5158H0V11.567V14.2752C0.00120951 14.7967 0.478403 15.2391 1.25919 15.6077C1.22959 15.6877 1.21117 15.7694 1.20597 15.8529H1.19996V15.9042V18.6123C1.20314 19.9235 4.19875 20.7377 7.52717 21.1177C7.55157 21.1225 7.57398 21.1323 7.59999 21.1323C7.60757 21.1323 7.61398 21.1284 7.6216 21.128C8.2632 21.1994 8.91521 21.2549 9.56041 21.2948C9.57399 21.2964 9.58601 21.3026 9.6 21.3026C9.60758 21.3026 9.61359 21.2987 9.6208 21.2983C10.44 21.3472 11.246 21.372 12 21.372C12.754 21.372 13.56 21.3472 14.3792 21.2979C14.3864 21.2983 14.3928 21.3022 14.4 21.3022C14.414 21.3022 14.426 21.2955 14.4396 21.2944C15.0848 21.2545 15.7368 21.1994 16.3784 21.1276C16.386 21.1276 16.3924 21.1315 16.4 21.1315C16.426 21.1315 16.4484 21.1217 16.4728 21.1169C19.8012 20.7369 22.7964 19.9224 22.8 18.6107V15.8525H22.7936C22.7656 15.3692 22.3476 14.9659 21.522 14.6288C21.5724 14.5148 21.6 14.3966 21.6 14.274V11.6971C23.0361 11.2619 23.998 10.6796 24 9.93722V7.17905H23.9956ZM20.7568 14.4021L20.6204 14.5199C20.4104 14.7025 20.0604 14.8866 19.6 15.064V13.1842C20.0756 13.021 20.4804 12.84 20.8 12.6417V14.2731C20.8 14.3137 20.7848 14.3571 20.7568 14.4021ZM11.8104 16.2341C11.752 16.2357 11.6932 16.2365 11.6344 16.2377C11.4916 16.2404 11.3452 16.2412 11.2004 16.2424V14.2731C11.3104 14.2719 11.4204 14.2704 11.5304 14.2684C11.5516 14.268 11.5728 14.2676 11.594 14.2672C11.9968 14.2597 12.3996 14.2475 12.8004 14.2294V16.1978C12.7148 16.2022 12.6288 16.2061 12.542 16.2097C12.3012 16.2203 12.058 16.2282 11.8104 16.2341ZM10.0636 16.2397C9.8804 16.2365 9.69801 16.2321 9.51682 16.2267C9.49441 16.2259 9.47203 16.2251 9.44962 16.2243C9.23162 16.2172 9.0152 16.2081 8.80043 16.1978V14.2298C9.20122 14.2483 9.60403 14.2605 10.0068 14.2676C10.028 14.268 10.0493 14.2684 10.0701 14.2688C10.18 14.2708 10.2901 14.2723 10.4001 14.2735V16.244C10.3224 16.2432 10.2448 16.2432 10.1677 16.242C10.1324 16.2412 10.0984 16.24 10.0636 16.2397ZM2.83881 15.3408C2.82563 15.3368 2.81321 15.3332 2.80003 15.3297V13.4251C3.17365 13.5244 3.57524 13.6151 4.00003 13.6975V15.6219C3.63282 15.545 3.29403 15.4641 2.98561 15.3814C2.93678 15.3676 2.88639 15.3546 2.83881 15.3408ZM11.27 18.6055C11.38 18.6075 11.49 18.6091 11.6 18.6103V20.5811C11.0472 20.576 10.5136 20.5602 10 20.5354V18.5669C10.4008 18.5854 10.8036 18.5977 11.2064 18.6047C11.2276 18.6047 11.2488 18.6051 11.27 18.6055ZM12.7936 18.6043C13.1964 18.5968 13.5992 18.5846 14 18.5665V20.535C13.4864 20.5598 12.9528 20.5756 12.4 20.5807V18.6099C12.51 18.6087 12.62 18.6071 12.73 18.6051C12.7512 18.6051 12.7724 18.6047 12.7936 18.6043ZM16 18.4262V20.384C15.6156 20.4238 15.2156 20.4589 14.8 20.4877V18.5216C15.2056 18.4955 15.6064 18.4636 16 18.4262ZM16.8 18.341C17.2124 18.2921 17.6128 18.2365 18 18.1746V20.1104C17.6232 20.1758 17.2228 20.2362 16.8 20.291V18.341ZM18.8 18.0339C19.2248 17.9515 19.6264 17.8608 20 17.7614V19.666C19.6436 19.7674 19.2424 19.8655 18.8 19.9582V18.0339ZM5.19999 18.0339V19.9582C4.75759 19.8655 4.35639 19.7674 3.99999 19.666V17.7614C4.37361 17.8608 4.7752 17.9519 5.19999 18.0339ZM6 18.175C6.38721 18.2369 6.7876 18.2925 7.2 18.3414V20.2914C6.77719 20.2366 6.3768 20.1762 6 20.1108V18.175ZM8.00001 18.4262C8.39363 18.4636 8.79442 18.4955 9.20001 18.522V20.4881C8.78442 20.4593 8.3844 20.4242 8.00001 20.3844V18.4262ZM7.00761 16.0685C6.9668 16.0646 6.92641 16.0603 6.88601 16.0563C6.85722 16.0536 6.8288 16.05 6.80001 16.0472V14.0898C7.19363 14.1273 7.59442 14.1592 8.00001 14.1856V16.1502C7.66401 16.1265 7.332 16.0997 7.00761 16.0685ZM6 14.0043V15.9542C5.57719 15.8994 5.1768 15.8391 4.8 15.7737V13.8379C5.18721 13.8998 5.5876 13.9558 6 14.0043ZM13.8664 16.1316C13.7784 16.1384 13.6896 16.145 13.6 16.1514V14.1852C14.0056 14.1588 14.4064 14.1273 14.8 14.0894V16.0472C14.5528 16.0729 14.3 16.0969 14.0404 16.1178C13.9824 16.1229 13.9244 16.1273 13.8664 16.1316ZM15.6 15.9542V14.0043C16.0124 13.9554 16.4128 13.8998 16.8 13.8379V15.7737C16.4232 15.8391 16.0228 15.8998 15.6 15.9542ZM17.6 13.6971C18.0248 13.6147 18.4264 13.5241 18.8 13.4247V15.3293C18.4436 15.4306 18.0424 15.5288 17.6 15.6215V13.6971ZM12.13 11.8962C11.8292 11.8887 11.5352 11.8773 11.2464 11.8635C11.2308 11.8627 11.2152 11.8619 11.2 11.8615V9.89307C11.6008 9.91159 12.0036 9.92383 12.4064 9.9309C12.4276 9.9313 12.4488 9.93169 12.4696 9.93209C12.5796 9.93408 12.6896 9.93563 12.7996 9.93682V11.9053C12.6048 11.9033 12.4084 11.9026 12.2184 11.8982C12.1892 11.8974 12.1592 11.897 12.13 11.8962ZM2.79999 6.26202V4.35741C3.17361 4.45676 3.5752 4.54744 3.99999 4.62985V6.55418C3.9508 6.54392 3.9 6.53367 3.85198 6.52342C3.63919 6.47728 3.4316 6.4292 3.23319 6.37834C3.08201 6.34007 2.9384 6.30105 2.79999 6.26202ZM10.07 5.20112C10.18 5.2031 10.29 5.20465 10.4 5.20585V7.17432C9.86162 7.16919 9.32641 7.1554 8.80003 7.12937V5.16245C9.20082 5.18097 9.60363 5.19321 10.0064 5.20028C10.0276 5.20032 10.0488 5.20072 10.07 5.20112ZM11.5936 5.19992C11.9964 5.19241 12.3992 5.18021 12.8 5.16209V7.12902C12.732 7.13216 12.6668 7.13688 12.5984 7.14006C12.5928 7.14046 12.5872 7.14046 12.5812 7.14086C12.3128 7.1527 12.0392 7.16136 11.762 7.16768C11.7188 7.16887 11.6756 7.16927 11.6324 7.17042C11.49 7.17316 11.3444 7.17356 11.2 7.17515V5.20588C11.31 5.20469 11.42 5.20314 11.53 5.20116C11.5512 5.20072 11.5724 5.20032 11.5936 5.19992ZM20.7084 5.39782L20.6972 5.39543L20.5516 5.50701C20.3404 5.66906 20.016 5.83306 19.6 5.99153V4.11609C20.0756 3.95288 20.4804 3.77192 20.8 3.57359V5.20497C20.8 5.26497 20.768 5.32963 20.7084 5.39782ZM15.6 6.88415V4.93654C16.0124 4.88767 16.4128 4.83207 16.8 4.77016V6.70275C16.4208 6.76903 16.0216 6.82975 15.6 6.88415ZM17.6 6.551V4.62981C18.0248 4.5474 18.4264 4.45675 18.8 4.35737V6.25765C18.4416 6.36057 18.038 6.45877 17.6 6.551ZM14.8 5.0217V6.97718C14.4136 7.01739 14.0136 7.05248 13.6 7.08165V5.11751C14.0056 5.09112 14.4064 5.05917 14.8 5.0217ZM6.80001 6.97797V5.0217C7.19363 5.05917 7.59442 5.09108 8.00001 5.11751V7.08006C7.59281 7.05133 7.19121 7.01859 6.80001 6.97797ZM6 4.93654V6.88451C5.92082 6.87426 5.83841 6.86599 5.75999 6.85534C5.70879 6.84823 5.66 6.84076 5.60961 6.83365C5.37839 6.80094 5.15241 6.76586 4.93083 6.72918C4.88644 6.72167 4.84362 6.7138 4.80004 6.70633V4.77056C5.18721 4.83208 5.5876 4.88806 6 4.93654ZM10.3008 11.8071C10.2468 11.8032 10.1924 11.7993 10.1388 11.7953C9.88278 11.7756 9.63282 11.7539 9.38882 11.7299C9.33641 11.7247 9.28403 11.7192 9.23203 11.7141C9.22122 11.7129 9.21082 11.7113 9.20001 11.7105V9.75272C9.59363 9.79019 9.99442 9.8221 10.4 9.84853V11.8135C10.3676 11.8111 10.3332 11.8095 10.3008 11.8071ZM7.658 11.5126C7.4996 11.4878 7.35079 11.4609 7.2 11.435V9.50158C7.58721 9.56349 7.9876 9.61908 8.4 9.66796V11.6179C8.15519 11.586 7.91559 11.5529 7.68562 11.5174C7.67639 11.5154 7.66719 11.5138 7.658 11.5126ZM6.39999 9.36043V11.2816C5.95799 11.1882 5.5572 11.0888 5.19999 10.9855V9.08803C5.57361 9.18733 5.9752 9.27841 6.39999 9.36043ZM4.40001 8.8471V10.7202C3.77123 10.4809 3.3656 10.2364 3.2336 10.0188L3.20679 9.97465C3.20437 9.96241 3.20038 9.94942 3.19997 9.93718V8.30461C3.51961 8.50294 3.92439 8.6839 4.40001 8.8471ZM13.9936 9.9309C14.3964 9.92339 14.7992 9.91119 15.2 9.89307V11.8596C14.6744 11.8852 14.14 11.8994 13.6 11.9049V9.93686C13.71 9.93567 13.82 9.93412 13.93 9.93213C13.9512 9.9317 13.9724 9.9313 13.9936 9.9309ZM19.1628 11.4436C18.9872 11.4736 18.81 11.5032 18.628 11.5304C18.5236 11.5461 18.4168 11.5611 18.3096 11.5761C18.2084 11.5903 18.1032 11.6025 18.0004 11.6155V9.66756C18.4128 9.61868 18.8132 9.56309 19.2004 9.50118V11.4369C19.1876 11.4393 19.1752 11.4416 19.1628 11.4436ZM16.4544 11.7803C16.3052 11.7926 16.1512 11.8004 16 11.8111V9.84848C16.4056 9.82206 16.8064 9.79055 17.2 9.75268V11.7086C16.9676 11.7326 16.7356 11.7566 16.4968 11.7763C16.4824 11.7775 16.4688 11.7791 16.4544 11.7803ZM21.0256 11.0411C20.8264 11.0959 20.6156 11.1471 20.4004 11.1972C20.3008 11.2201 20.1992 11.243 20.0952 11.265C20.0644 11.2717 20.0316 11.2776 20.0004 11.2843V9.36079C20.4252 9.27837 20.8268 9.18773 21.2004 9.08835V10.993C21.1428 11.0088 21.0848 11.025 21.0256 11.0411ZM23.1956 7.20468C23.1588 7.47239 22.5432 7.82839 21.4444 8.1631C20.0292 8.59402 17.8148 8.98865 15.0084 9.11088C14.8648 9.1168 14.7216 9.12272 14.5752 9.12745C14.4556 9.13138 14.3356 9.13496 14.2136 9.1381C13.8824 9.14521 13.5464 9.15034 13.2 9.15034C12.8536 9.15034 12.5176 9.14521 12.1863 9.13774C12.0647 9.135 11.9448 9.13103 11.8247 9.12709C11.6779 9.12276 11.5347 9.11644 11.3915 9.11052C8.58514 8.98829 6.37031 8.59366 4.95554 8.16274C3.86553 7.83078 3.25114 7.47755 3.20554 7.21103C3.20755 7.20352 3.20755 7.19724 3.21235 7.18779C3.23956 7.1945 3.26996 7.20003 3.29754 7.2067C3.45393 7.24338 3.61435 7.27887 3.77756 7.31276C4.57237 7.48149 5.45314 7.61989 6.39156 7.72555C6.39474 7.72555 6.39716 7.72714 6.39995 7.72714C6.40075 7.72714 6.40156 7.72675 6.40196 7.72675C7.04115 7.79851 7.70437 7.85486 8.38516 7.89468C8.39036 7.89468 8.39476 7.89742 8.39996 7.89742C8.40274 7.89742 8.40476 7.89583 8.40754 7.89583C8.89755 7.9242 9.39394 7.9451 9.89633 7.95615C10.204 7.96362 10.5059 7.9676 10.7999 7.9676C11.0099 7.9676 11.2251 7.96521 11.4423 7.96128C14.3487 7.91713 17.0423 7.5765 18.9167 7.04859C19.0031 7.02455 19.0875 6.99971 19.1707 6.97488C19.2215 6.9595 19.2735 6.94452 19.3227 6.92914C19.4675 6.8834 19.6063 6.83647 19.7403 6.78759C19.7635 6.77893 19.7855 6.77023 19.8087 6.76156C19.922 6.71936 20.0307 6.67561 20.1348 6.63107C20.1647 6.61807 20.1956 6.60544 20.2247 6.59244C20.3355 6.54317 20.4427 6.4927 20.542 6.44025C20.5867 6.417 20.6256 6.39292 20.6675 6.36928C20.7156 6.34206 20.7635 6.31448 20.8079 6.2865C20.8331 6.27073 20.8631 6.25575 20.8871 6.23997C22.678 6.62276 23.15 7.04144 23.1956 7.20468ZM10.8 0.87109C17.3956 0.87109 20.7316 1.89457 20.794 2.482C20.7456 2.74852 20.1316 3.1006 19.0444 3.43173C17.6292 3.86264 15.4148 4.25727 12.6084 4.37951C12.4648 4.38543 12.3216 4.39135 12.1752 4.39608C12.0556 4.40001 11.9356 4.40359 11.8136 4.40673C11.4824 4.41424 11.1464 4.41932 10.8 4.41932C10.4536 4.41932 10.1176 4.4142 9.78639 4.40673C9.66479 4.40398 9.54481 4.40001 9.42478 4.39608C9.27799 4.39174 9.13478 4.38543 8.99157 4.37951C6.18518 4.25727 3.97035 3.86264 2.55558 3.43173C1.46799 3.10056 0.854401 2.74848 0.80598 2.482C0.868391 1.89453 4.20439 0.87109 10.8 0.87109ZM0.800013 5.20624V3.57367C1.11961 3.77196 1.52443 3.95292 2.00001 4.11617V6.00381C1.22201 5.71639 0.80082 5.42818 0.800013 5.20624ZM2.73762 10.6622C2.74362 10.6685 2.75282 10.6741 2.75882 10.6803C3.30641 11.2252 4.44041 11.6534 5.85204 11.9727C5.88445 11.9802 5.91884 11.9873 5.95162 11.9948C6.05523 12.0176 6.16042 12.0401 6.26682 12.0618C7.56322 12.3339 9.11083 12.5306 10.7968 12.628C10.798 12.628 10.7988 12.6284 10.7996 12.6284C10.8004 12.6284 10.8008 12.628 10.8012 12.628C11.3428 12.6591 11.8968 12.6808 12.4624 12.6903C12.7128 12.6954 12.9592 12.6985 13.2 12.6985C13.476 12.6985 13.7592 12.6954 14.0472 12.6887C14.5704 12.678 15.086 12.6567 15.5944 12.6276C15.5964 12.6276 15.598 12.6288 15.6 12.6288C15.6036 12.6288 15.6064 12.6268 15.61 12.6268C17.3004 12.5286 18.8864 12.3299 20.2276 12.0441C19.9372 12.1939 19.5396 12.3488 19.0444 12.4998C17.5504 12.9548 15.1644 13.3691 12.132 13.4653C12.042 13.468 11.9532 13.4712 11.862 13.4736C11.764 13.476 11.6644 13.4775 11.5648 13.4795C11.3132 13.4834 11.06 13.487 10.8 13.487C10.4536 13.487 10.1176 13.4819 9.78635 13.4744C9.66475 13.4717 9.54476 13.4677 9.42474 13.4638C9.27795 13.4594 9.13474 13.4531 8.99153 13.4472C6.18514 13.325 3.97031 12.9303 2.55554 12.4994C1.45553 12.1643 0.839927 11.8079 0.804327 11.5402C0.848797 11.392 1.25322 11.021 2.73762 10.6622ZM0.800013 14.2739V12.6413C1.11961 12.8396 1.52443 13.0206 2.00001 13.1838V15.064L1.77162 14.9765L1.76682 14.9812C1.1388 14.7245 0.80082 14.4726 0.800013 14.2739ZM2.00001 18.6107V16.9781C2.31961 17.1764 2.72443 17.3573 3.20001 17.5206V19.4082C2.42201 19.1208 2.00082 18.8326 2.00001 18.6107ZM20.8 19.4082V17.521C21.2756 17.3578 21.6804 17.1768 22 16.9785V18.6099C21.9996 18.8318 21.578 19.1204 20.8 19.4082ZM21.9948 15.8828C21.9512 16.1498 21.3368 16.5038 20.2444 16.8365C18.8292 17.2675 16.6148 17.6621 13.8084 17.7843C13.6648 17.7902 13.5216 17.7962 13.3752 17.8009C13.2556 17.8048 13.1356 17.8084 13.0136 17.8115C12.6824 17.8187 12.3464 17.8238 12 17.8238C11.6536 17.8238 11.3171 17.8187 10.9856 17.8111C10.8652 17.8084 10.7464 17.8044 10.6276 17.8005C10.48 17.7958 10.3359 17.7898 10.1916 17.7839C7.38518 17.6617 5.17076 17.2671 3.75558 16.8362C2.69758 16.514 2.08637 16.1719 2.00957 15.9077C2.12879 15.9487 2.25236 15.9885 2.37916 16.0275C2.39194 16.0315 2.40476 16.0354 2.41754 16.039C2.52555 16.0717 2.63594 16.1032 2.74915 16.134C2.79196 16.1458 2.83514 16.1576 2.87877 16.1691C2.94275 16.186 3.00839 16.2022 3.07398 16.2187C4.53076 16.5866 6.39039 16.8472 8.39798 16.9643C8.39879 16.9643 8.39919 16.9647 8.4 16.9647C8.4004 16.9647 8.40081 16.9643 8.40121 16.9643C9.02121 17.0005 9.65443 17.023 10.2944 17.0305C10.4648 17.0336 10.634 17.0352 10.8 17.0352C11.0205 17.0352 11.246 17.0325 11.4744 17.0285C12.058 17.0191 12.634 16.9978 13.1972 16.9647C13.1984 16.9647 13.1992 16.9655 13.2004 16.9655C13.2024 16.9655 13.2036 16.9643 13.2056 16.9643C13.8916 16.9237 14.5556 16.8657 15.1936 16.7936C15.196 16.7936 15.198 16.7947 15.2004 16.7947C15.2092 16.7947 15.2164 16.7904 15.2252 16.7896C15.9356 16.7088 16.6092 16.6094 17.2344 16.4939C17.3632 16.4707 17.49 16.4466 17.6156 16.4218C17.6436 16.4162 17.6716 16.4107 17.6996 16.4048C18.8808 16.1659 19.9032 15.8564 20.6048 15.4728C20.6432 15.4523 20.6792 15.431 20.7156 15.4101C20.76 15.3841 20.8024 15.3577 20.8436 15.3309C20.882 15.3065 20.9264 15.2828 20.9616 15.258C21.7512 15.5355 21.9688 15.7839 21.9948 15.8828ZM22 10.7348V8.8475C22.4756 8.6843 22.8804 8.50333 23.2 8.30501V9.93638C23.1996 10.1584 22.778 10.447 22 10.7348Z" fill="black"/>
</svg>
