<svg width="24" height="31" viewBox="0 0 24 31" fill="none" xmlns="http://www.w3.org/2000/svg">
<g clip-path="url(#clip0)">
<path d="M17.5451 29.4619H0.880156V7.48422C0.880156 7.23815 0.683111 7.03873 0.440078 7.03873C0.197045 7.03873 0 7.23815 0 7.48422V29.6104C0 30.0199 0.329064 30.3529 0.73348 30.3529H17.5451C17.7881 30.3529 17.9851 30.1535 17.9852 29.9075C17.9852 29.6613 17.7881 29.4619 17.5451 29.4619Z" fill="black"/>
<path d="M23.8763 4.02932L20.1356 0.135925C20.0527 0.0496511 19.9389 0.00100708 19.8201 0.00100708H0.734457C0.33004 0.00100708 0.00102693 0.334172 0.000976562 0.743565V4.21834C0.000976562 4.46441 0.198022 4.66383 0.441055 4.66383C0.684087 4.66383 0.881133 4.46441 0.881133 4.21834V0.892097H19.6342L23.1208 4.52096V29.4628H20.6266C20.3835 29.4628 20.1865 29.6623 20.1865 29.9083C20.1865 30.1544 20.3835 30.3538 20.6266 30.3538H23.2674C23.6719 30.3538 24.0009 30.0208 24.0009 29.6114V4.33989C24.0009 4.22384 23.9562 4.11248 23.8763 4.02932Z" fill="black"/>
<path d="M23.8754 4.02834L20.1346 0.13495C20.0097 0.00497814 19.8195 -0.0354057 19.6536 0.032818C19.4877 0.101042 19.3792 0.264259 19.3792 0.445628V4.33892C19.3792 4.58499 19.5762 4.78441 19.8192 4.78441H23.56C23.7369 4.78441 23.8966 4.67723 23.9653 4.51223C24.0341 4.34733 23.9987 4.15663 23.8754 4.02834ZM20.2593 3.89338V1.54246L22.518 3.89338H20.2593Z" fill="black"/>
<path d="M14.0368 2.36536H3.43319C3.02872 2.36536 2.69971 2.69847 2.69971 3.10786V5.57009C2.69971 5.97953 3.02877 6.31259 3.43319 6.31259H14.0369C14.4413 6.31259 14.7704 5.97948 14.7704 5.57014V3.10781C14.7703 2.69832 14.4413 2.36536 14.0368 2.36536ZM13.8901 5.4215H3.57986V3.25629H13.8901V5.4215Z" fill="black"/>
<path d="M7.09524 8.64413C6.90182 8.49539 6.62569 8.53333 6.47856 8.72928L4.5341 11.3192L3.95011 10.8019C3.76722 10.6398 3.48923 10.6587 3.32911 10.8439C3.16903 11.0291 3.18762 11.3105 3.37051 11.4725L4.30935 12.3041C4.38994 12.3754 4.49305 12.4143 4.59912 12.4143C4.61388 12.4143 4.62869 12.4135 4.64355 12.4121C4.76489 12.3996 4.87575 12.3367 4.94955 12.2384L7.1793 9.26839C7.32638 9.07249 7.28871 8.79302 7.09524 8.64413Z" fill="black"/>
<path d="M20.3398 8.55322H9.25551C9.01248 8.55322 8.81543 8.75264 8.81543 8.99872C8.81543 9.24479 9.01248 9.44421 9.25551 9.44421H20.3398C20.5828 9.44421 20.7798 9.24479 20.7798 8.99872C20.7799 8.75264 20.5829 8.55322 20.3398 8.55322Z" fill="black"/>
<path d="M16.4519 10.0381H9.25551C9.01248 10.0381 8.81543 10.2376 8.81543 10.4836C8.81543 10.7297 9.01248 10.9291 9.25551 10.9291H16.4519C16.695 10.9291 16.892 10.7297 16.892 10.4836C16.8921 10.2376 16.695 10.0381 16.4519 10.0381Z" fill="black"/>
<path d="M18.0949 11.5232H9.25551C9.01248 11.5232 8.81543 11.7226 8.81543 11.9687C8.81543 12.2148 9.01248 12.4142 9.25551 12.4142H18.0949C18.3379 12.4142 18.535 12.2148 18.535 11.9687C18.535 11.7227 18.338 11.5232 18.0949 11.5232Z" fill="black"/>
<path d="M7.09524 14.703C6.90182 14.5543 6.62569 14.5922 6.47856 14.7882L4.5341 17.3781L3.95011 16.8609C3.76722 16.6988 3.48923 16.7176 3.32911 16.9028C3.16903 17.088 3.18762 17.3694 3.37051 17.5314L4.30935 18.363C4.38994 18.4343 4.49305 18.4732 4.59912 18.4732C4.61388 18.4732 4.62869 18.4724 4.64355 18.471C4.76489 18.4585 4.87575 18.3956 4.94955 18.2973L7.1793 15.3273C7.32638 15.1314 7.28871 14.852 7.09524 14.703Z" fill="black"/>
<path d="M20.3398 14.6122H9.25551C9.01248 14.6122 8.81543 14.8116 8.81543 15.0577C8.81543 15.3038 9.01248 15.5032 9.25551 15.5032H20.3398C20.5828 15.5032 20.7798 15.3038 20.7798 15.0577C20.7799 14.8116 20.5829 14.6122 20.3398 14.6122Z" fill="black"/>
<path d="M16.4519 16.0971H9.25551C9.01248 16.0971 8.81543 16.2966 8.81543 16.5426C8.81543 16.7887 9.01248 16.9881 9.25551 16.9881H16.4519C16.695 16.9881 16.892 16.7887 16.892 16.5426C16.8921 16.2966 16.695 16.0971 16.4519 16.0971Z" fill="black"/>
<path d="M18.0949 17.5821H9.25551C9.01248 17.5821 8.81543 17.7815 8.81543 18.0276C8.81543 18.2737 9.01248 18.4731 9.25551 18.4731H18.0949C18.3379 18.4731 18.535 18.2737 18.535 18.0276C18.535 17.7816 18.338 17.5821 18.0949 17.5821Z" fill="black"/>
<path d="M20.3398 20.6711H9.25551C9.01248 20.6711 8.81543 20.8705 8.81543 21.1166C8.81543 21.3627 9.01248 21.5621 9.25551 21.5621H20.3398C20.5828 21.5621 20.7798 21.3627 20.7798 21.1166C20.7799 20.8705 20.5829 20.6711 20.3398 20.6711Z" fill="black"/>
<path d="M16.4519 22.1561H9.25551C9.01248 22.1561 8.81543 22.3555 8.81543 22.6016C8.81543 22.8477 9.01248 23.0471 9.25551 23.0471H16.4519C16.695 23.0471 16.892 22.8477 16.892 22.6016C16.8921 22.3555 16.695 22.1561 16.4519 22.1561Z" fill="black"/>
<path d="M18.0949 23.6411H9.25551C9.01248 23.6411 8.81543 23.8405 8.81543 24.0866C8.81543 24.3327 9.01248 24.5321 9.25551 24.5321H18.0949C18.3379 24.5321 18.535 24.3327 18.535 24.0866C18.535 23.8405 18.338 23.6411 18.0949 23.6411Z" fill="black"/>
<path d="M6.30081 20.6711H3.9537C3.54923 20.6711 3.22021 21.0042 3.22021 21.4136V23.7896C3.22021 24.1991 3.54928 24.5321 3.9537 24.5321H6.30081C6.70528 24.5321 7.03429 24.199 7.03429 23.7896V21.4136C7.03434 21.0042 6.70528 20.6711 6.30081 20.6711ZM6.15419 23.6411H4.10047V21.5622H6.15419V23.6411Z" fill="black"/>
</g>
<defs>
<clipPath id="clip0">
<rect width="24" height="30.3529" fill="white"/>
</clipPath>
</defs>
</svg>
