<svg width="24" height="34" viewBox="0 0 24 34" fill="none" xmlns="http://www.w3.org/2000/svg">
<path d="M12 29.0203C5.38327 29.0203 0 23.6279 0 17C0 10.3721 5.38327 4.97971 12 4.97971C18.6167 4.97971 24 10.3721 24 17C24 23.6279 18.6167 29.0203 12 29.0203ZM12 5.70822C5.78398 5.70822 0.727281 10.7735 0.727281 17C0.727281 23.2265 5.78398 28.2918 12 28.2918C18.216 28.2918 23.2727 23.2265 23.2727 17C23.2727 10.7735 18.216 5.70822 12 5.70822Z" fill="black"/>
<path d="M11.9999 29.0203C9.50176 29.0203 7.10104 28.2495 5.05522 26.791C4.94613 26.7131 4.88795 26.5798 4.9054 26.4465C4.92286 26.3132 5.01305 26.1995 5.13957 26.1529C8.15485 25.0346 8.64139 24.1269 8.64139 22.3873C8.64139 21.9276 8.5381 21.7768 8.35196 21.5029C8.10542 21.143 7.76796 20.6498 7.53086 19.3618C7.49594 19.1767 7.46615 19.1622 7.30105 19.082C6.8603 18.8693 6.45524 18.5633 6.34904 17.1675C6.34904 16.4915 6.58175 16.1178 6.77451 15.9233C6.73234 15.6829 6.66323 15.2683 6.59852 14.8167C6.26905 12.7936 6.25454 10.316 9.09524 9.16422C11.5709 8.15887 13.5469 8.70819 14.1672 9.36312C14.6065 9.37697 15.7396 9.49207 16.528 10.4107C17.7411 11.824 17.3549 15.0462 17.2225 15.9196C17.4159 16.1098 17.6509 16.4784 17.6509 17.1399C17.5447 18.5634 17.1396 18.8701 16.6981 19.082C16.5323 19.1622 16.5025 19.176 16.4683 19.3618C16.2312 20.6498 15.8945 21.143 15.648 21.5029C15.461 21.7761 15.3585 21.9276 15.3585 22.3873C15.3585 24.1269 15.8451 25.0346 18.8603 26.1529C18.9869 26.1995 19.0771 26.3124 19.0945 26.4465C19.112 26.5805 19.0538 26.7131 18.9447 26.791C16.8988 28.2495 14.4981 29.0203 11.9999 29.0203ZM6.04868 26.5805C7.8392 27.7024 9.88284 28.2918 11.9999 28.2918C14.117 28.2918 16.1607 27.7024 17.9512 26.5805C15.4246 25.5417 14.6312 24.4941 14.6312 22.388C14.6312 21.7025 14.8334 21.406 15.0479 21.092C15.269 20.7685 15.5439 20.3664 15.7541 19.2299C15.8552 18.6807 16.173 18.5277 16.3832 18.4264C16.6094 18.3178 16.8421 18.2056 16.9243 17.1129C16.9236 16.5563 16.6741 16.4048 16.6639 16.399C16.5301 16.3217 16.4436 16.1593 16.472 16.0078C16.6523 15.0396 16.949 12.0199 15.9767 10.8856C15.3127 10.112 14.2662 10.0909 14.0669 10.0989C14.0334 10.0959 14.0007 10.0952 13.9694 10.0872C13.8749 10.0632 13.7149 9.98081 13.6662 9.89632C13.4683 9.55685 11.7455 8.87425 9.36799 9.83805C7.01819 10.7909 7.01306 12.8336 7.31782 14.7059C7.41817 15.4031 7.528 16.0055 7.52872 16.0084C7.55856 16.1724 7.47345 16.3355 7.3229 16.4047C7.32508 16.4047 7.07636 16.557 7.07636 17.1391C7.1578 18.2034 7.39128 18.3163 7.61673 18.4249C7.82691 18.5261 8.14545 18.6791 8.24657 19.2284C8.45602 20.3649 8.73094 20.767 8.95204 21.0904C9.16729 21.4044 9.36948 21.701 9.36948 22.3865C9.3694 24.4948 8.57592 25.5424 6.04868 26.5805Z" fill="black"/>
</svg>
