<svg width="24" height="24" viewBox="0 0 24 24" fill="none" xmlns="http://www.w3.org/2000/svg">
<g clip-path="url(#clip0)">
<path d="M11.0746 16.2781C11.2578 16.0948 11.2578 15.7981 11.0746 15.6149C10.8911 15.4321 10.5939 15.4321 10.4103 15.6149C10.2272 15.7981 10.2272 16.0948 10.4103 16.2781C10.5939 16.4608 10.8911 16.4608 11.0746 16.2781Z" fill="black"/>
<path d="M8.85083 5.15479C8.85083 7.99716 11.1678 10.3098 14.0157 10.3098C16.8636 10.3098 19.1806 7.99716 19.1806 5.15479C19.1806 2.31242 16.8636 0 14.0157 0C11.1678 0 8.85083 2.31242 8.85083 5.15479ZM18.2416 5.15479C18.2416 7.48041 16.3459 9.37247 14.0157 9.37247C11.6855 9.37247 9.78982 7.48041 9.78982 5.15479C9.78982 2.82933 11.6855 0.937315 14.0157 0.937315C16.346 0.937315 18.2416 2.82933 18.2416 5.15479Z" fill="black"/>
<path d="M5.43194 23.8614C5.61393 24.0446 5.91023 24.0466 6.0946 23.8653L8.37102 21.627C8.75775 21.2411 8.87535 20.6695 8.70529 20.1728L9.19495 19.7015C9.45858 19.4473 9.80571 19.3073 10.1726 19.3073H16.4146C17.522 19.3073 18.5687 18.8828 19.3622 18.1122C19.3948 18.0805 19.1143 18.4102 23.6206 13.035C24.2889 12.2458 24.1889 11.0607 23.3975 10.393C22.611 9.7314 21.4327 9.82644 20.7626 10.6021L17.9919 13.4442C17.642 13.0145 17.1085 12.7466 16.5321 12.7466H11.2962C10.5511 12.4355 9.7606 12.2781 8.94494 12.2781C6.68391 12.2781 4.70966 13.3203 3.65017 15.2744C3.20381 15.19 2.73303 15.3247 2.39437 15.6628L0.160675 17.8986C-0.0216799 18.0811 -0.0220428 18.3765 0.159949 18.5596L5.43194 23.8614ZM8.94474 13.2151C9.66392 13.2151 10.3592 13.3595 11.0118 13.6445C11.0713 13.6705 11.1353 13.6838 11.2001 13.6838H16.5321C17.0412 13.6838 17.4713 14.0982 17.4713 14.621C17.4713 15.1379 17.05 15.5583 16.5321 15.5583H12.7012C12.442 15.5583 12.2317 15.7681 12.2317 16.0269C12.2317 16.2858 12.442 16.4954 12.7012 16.4954H16.5321C17.5678 16.4954 18.4102 15.6546 18.4102 14.621C18.4102 14.5386 18.4044 14.4569 18.3937 14.376C21.0739 11.6263 21.4519 11.2399 21.468 11.2207C21.8026 10.8265 22.3967 10.7765 22.7919 11.109C23.1874 11.4428 23.2375 12.0353 22.9019 12.4318L18.6905 17.4565C18.0756 18.0458 17.2681 18.3701 16.4147 18.3701H10.1726C9.56099 18.3701 8.98195 18.6035 8.54274 19.0271L8.14372 19.4114L4.46526 15.7403C5.32498 14.1306 6.93819 13.2151 8.94474 13.2151ZM3.05883 16.325C3.21369 16.1704 3.45144 16.1426 3.64025 16.259C3.72153 16.3085 3.48817 16.0964 7.70708 20.3013C7.89476 20.4886 7.88468 20.7871 7.70966 20.9618L5.76899 22.8699L1.15542 18.2302L3.05883 16.325Z" fill="black"/>
<path d="M13.4523 2.34321V2.89234C12.9058 3.08569 12.5132 3.60666 12.5132 4.21768C12.5132 4.99275 13.145 5.62357 13.9218 5.62357C14.1807 5.62357 14.3913 5.83378 14.3913 6.09215C14.3913 6.35052 14.1807 6.56073 13.9218 6.56073C13.7213 6.56073 13.5046 6.43494 13.3122 6.20622C13.1452 6.00809 12.8491 5.98266 12.6506 6.14909C12.4521 6.31571 12.4264 6.61122 12.5933 6.80936C12.8443 7.10728 13.1395 7.31491 13.4523 7.41965V7.96658C13.4523 8.22547 13.6626 8.43515 13.9218 8.43515C14.181 8.43515 14.3913 8.22551 14.3913 7.96658V7.41744C14.9378 7.22389 15.3304 6.70297 15.3304 6.09211C15.3304 5.31683 14.6986 4.68622 13.9218 4.68622C13.6629 4.68622 13.4523 4.47601 13.4523 4.21764C13.4523 3.95927 13.6629 3.7489 13.9218 3.7489C14.0882 3.7489 14.2638 3.83368 14.4296 3.99391C14.616 4.1739 14.9132 4.16895 15.0936 3.98313C15.2739 3.79711 15.2689 3.50047 15.0828 3.32048C14.8444 3.09032 14.6059 2.96015 14.3913 2.88908V2.34325C14.3913 2.08436 14.181 1.87451 13.9218 1.87451C13.6626 1.87451 13.4523 2.08427 13.4523 2.34321Z" fill="black"/>
</g>
<defs>
<clipPath id="clip0">
<rect width="24" height="24" fill="white"/>
</clipPath>
</defs>
</svg>
