<svg width="24" height="24" viewBox="0 0 24 24" fill="none" xmlns="http://www.w3.org/2000/svg">
<path d="M8.25 2.8125C8.50875 2.8125 8.71875 2.6025 8.71875 2.34375C8.71875 2.085 8.50875 1.875 8.25 1.875C7.99125 1.875 7.78125 2.085 7.78125 2.34375C7.78125 2.6025 7.99125 2.8125 8.25 2.8125Z" fill="black"/>
<path d="M5.15625 9.65625C5.415 9.65625 5.625 9.44625 5.625 9.1875C5.625 8.92875 5.415 8.71875 5.15625 8.71875C4.8975 8.71875 4.6875 8.92875 4.6875 9.1875C4.6875 9.44625 4.8975 9.65625 5.15625 9.65625Z" fill="black"/>
<path d="M22.5938 6.84375H22.125V5.90625C22.125 5.44519 21.9591 5.00958 21.6562 4.66702V3.5625C21.6562 2.78705 21.0255 2.15625 20.25 2.15625C19.4745 2.15625 18.8438 2.78705 18.8438 3.5625V4.66753C18.5438 5.00737 18.375 5.44777 18.375 5.90625V18.8438C18.375 21.1829 19.7148 22.6273 19.7812 22.7499V23.5312C19.7812 23.7901 19.9911 24 20.25 24C20.5089 24 20.7188 23.7901 20.7188 23.5312V22.7499C20.785 22.6275 22.125 21.1954 22.125 18.8438V7.78125H22.5938C22.8523 7.78125 23.0625 7.99144 23.0625 8.25V12C23.0625 12.2589 23.2724 12.4688 23.5312 12.4688C23.7901 12.4688 24 12.2589 24 12V8.25C24 7.47455 23.3692 6.84375 22.5938 6.84375ZM19.3125 5.90625C19.3125 5.39156 19.7318 4.96875 20.25 4.96875C20.7548 4.96875 21.1875 5.37708 21.1875 5.90625V6.84375H19.3125V5.90625ZM20.25 3.09375C20.5086 3.09375 20.7188 3.30394 20.7188 3.5625V4.0913C20.567 4.05192 20.4095 4.03125 20.25 4.03125C20.0903 4.03125 19.933 4.05192 19.7812 4.09111V3.5625C19.7812 3.30394 19.9914 3.09375 20.25 3.09375ZM20.25 21.8082C19.7342 21.0734 19.417 20.2051 19.3343 19.3119H21.1657C21.083 20.2051 20.7658 21.0734 20.25 21.8082ZM21.1875 18.375H19.3125V7.78125H21.1875V18.375Z" fill="black"/>
<path d="M15.0938 24C15.8692 24 16.5 23.3692 16.5 22.5938V5.15625C16.5 4.3808 15.8692 3.75 15.0938 3.75H12.6694C12.4759 3.20433 11.9548 2.8125 11.3438 2.8125H10.5447C10.5773 2.65889 10.5938 2.50233 10.5938 2.34375C10.5938 1.05141 9.54234 0 8.25 0C6.95766 0 5.90625 1.05141 5.90625 2.34375C5.90625 2.50233 5.92275 2.65889 5.95533 2.8125H5.15625C4.54523 2.8125 4.02413 3.20433 3.83058 3.75H1.40625C0.630797 3.75 0 4.3808 0 5.15625V22.5938C0 23.3692 0.630797 24 1.40625 24H15.0938ZM13.6875 19.038V21.1875H11.538L13.6875 19.038ZM10.875 20.5245V18.375H13.0245L10.875 20.5245ZM13.6875 17.4375H10.4062C10.1474 17.4375 9.9375 17.6474 9.9375 17.9062V21.1875H2.8125V6.5625H13.6875V17.4375ZM5.15625 3.75H6.63558C6.80348 3.75 6.95841 3.66028 7.04208 3.51487C7.12556 3.36947 7.12519 3.19041 7.04081 3.04538C6.91003 2.82094 6.84375 2.58473 6.84375 2.34375C6.84375 1.5683 7.47455 0.9375 8.25 0.9375C9.02545 0.9375 9.65625 1.5683 9.65625 2.34375C9.65625 2.58473 9.58997 2.82094 9.45923 3.04542C9.37481 3.19045 9.37425 3.36952 9.45797 3.51492C9.54164 3.66047 9.69656 3.75005 9.86447 3.75005H11.3438C11.6023 3.75005 11.8125 3.96023 11.8125 4.2188V5.62505H4.6875V4.21875C4.6875 3.96019 4.89769 3.75 5.15625 3.75ZM0.9375 22.5938V5.15625C0.9375 4.89769 1.14769 4.6875 1.40625 4.6875H3.75V5.625H2.34375C2.08486 5.625 1.875 5.83486 1.875 6.09375V21.6562C1.875 21.9151 2.08486 22.125 2.34375 22.125H14.1562C14.4151 22.125 14.625 21.9151 14.625 21.6562C14.625 20.0651 14.625 9.87816 14.625 6.09375C14.625 5.83486 14.4151 5.625 14.1562 5.625H12.75V4.6875H15.0938C15.3523 4.6875 15.5625 4.89769 15.5625 5.15625V22.5938C15.5625 22.8523 15.3523 23.0625 15.0938 23.0625H1.40625C1.14769 23.0625 0.9375 22.8523 0.9375 22.5938Z" fill="black"/>
<path d="M11.3438 8.71875H7.03125C6.77236 8.71875 6.5625 8.92861 6.5625 9.1875C6.5625 9.44639 6.77236 9.65625 7.03125 9.65625H11.3438C11.6026 9.65625 11.8125 9.44639 11.8125 9.1875C11.8125 8.92861 11.6026 8.71875 11.3438 8.71875Z" fill="black"/>
<path d="M11.3438 13.6875H5.15625C4.89736 13.6875 4.6875 13.8974 4.6875 14.1562C4.6875 14.4151 4.89736 14.625 5.15625 14.625H11.3438C11.6026 14.625 11.8125 14.4151 11.8125 14.1562C11.8125 13.8974 11.6026 13.6875 11.3438 13.6875Z" fill="black"/>
<path d="M11.3438 15.5625H5.15625C4.89736 15.5625 4.6875 15.7724 4.6875 16.0312C4.6875 16.2901 4.89736 16.5 5.15625 16.5H11.3438C11.6026 16.5 11.8125 16.2901 11.8125 16.0312C11.8125 15.7724 11.6026 15.5625 11.3438 15.5625Z" fill="black"/>
<path d="M11.3438 11.8125H5.15625C4.89736 11.8125 4.6875 12.0224 4.6875 12.2812C4.6875 12.5401 4.89736 12.75 5.15625 12.75H11.3438C11.6026 12.75 11.8125 12.5401 11.8125 12.2812C11.8125 12.0224 11.6026 11.8125 11.3438 11.8125Z" fill="black"/>
</svg>
