<svg width="24" height="23" viewBox="0 0 24 23" fill="none" xmlns="http://www.w3.org/2000/svg">
<path d="M23.6485 19.1418C23.4542 19.1418 23.2969 19.3003 23.2969 19.4957V21.8603C23.2969 21.8932 23.2703 21.92 23.2376 21.92H21.9018V16.7493C21.9018 16.5538 21.7444 16.3955 21.5502 16.3955C21.356 16.3955 21.1987 16.554 21.1987 16.7493V21.92H18.6173L19.316 21.1462C19.4239 21.0268 19.4748 20.857 19.4521 20.6921C19.4516 20.6886 19.4511 20.6851 19.4504 20.6816L18.6651 16.0102L18.8095 15.7912L18.8471 15.8181C18.976 15.9103 19.1402 15.9439 19.2992 15.9038C19.4554 15.8645 19.5863 15.7588 19.6581 15.6139L20.4572 14.0015L22.2828 14.7132C22.3547 14.7447 23.2964 15.1794 23.2964 16.3102V17.844C23.2964 18.0396 23.4539 18.1979 23.648 18.1979C23.8422 18.1979 23.9995 18.0394 23.9995 17.844V16.3102C23.9995 14.677 22.6081 14.0824 22.5488 14.0579C22.5466 14.0569 22.5444 14.056 22.542 14.0552L19.4333 12.8432V12.1987C19.9187 11.8057 20.2594 11.2393 20.3616 10.5936C20.6036 10.5631 20.8282 10.4654 21.0144 10.3041C21.2817 10.0728 21.4349 9.73633 21.4349 9.38074C21.4349 9.09709 21.337 8.82555 21.1619 8.60991V7.65498C21.1619 5.78603 19.6514 4.26567 17.795 4.26567C16.9615 4.26567 16.1983 4.57285 15.6097 5.07963C15.6021 4.80842 15.5058 4.55 15.3376 4.34323V3.3883C15.3376 1.51935 13.8271 -0.00100708 11.9707 -0.00100708C10.1141 -0.00100708 8.6038 1.51952 8.6038 3.3883V4.36812C8.4348 4.57148 8.34031 4.81644 8.33184 5.07656C7.95626 4.75354 7.50684 4.51029 7.00577 4.3775C6.81764 4.32772 6.62561 4.44057 6.57617 4.62961C6.52672 4.81865 6.63882 5.0123 6.82661 5.06207C7.99436 5.37163 8.81005 6.43788 8.81005 7.65498V8.18427C8.79481 8.18103 8.74604 8.17268 8.74418 8.17233C8.73943 8.07244 8.7142 8.01142 8.66018 7.93317C8.57027 7.80294 8.40855 7.64083 7.88869 7.0783C7.70344 6.87801 7.40388 6.84119 7.17646 6.99086C6.28609 7.5764 5.20437 7.87471 4.20055 7.81539C3.87356 7.79612 3.66934 7.94068 3.5823 8.17779C3.57451 8.17898 3.48765 8.19671 3.48274 8.1979V7.65498C3.48274 6.48152 4.26168 5.42584 5.37693 5.08764C5.56286 5.03122 5.66819 4.83382 5.61214 4.64666C5.55609 4.45949 5.35966 4.35346 5.17406 4.40988C4.4957 4.61546 3.88609 5.04366 3.45733 5.61539C3.01367 6.2069 2.77931 6.9121 2.77931 7.65498V8.6348C2.60219 8.84788 2.50651 9.10664 2.50651 9.38074C2.50651 9.98657 2.95 10.515 3.5818 10.5938C3.68526 11.2243 4.02512 11.8289 4.56141 12.2401V12.8432L1.45748 14.0553C1.45527 14.0562 1.45307 14.057 1.45087 14.0581C1.3916 14.0826 0 14.6772 0 16.3102V21.8603C0 22.2836 0.342059 22.6277 0.762351 22.6277H11.589C11.7404 22.6277 11.8811 22.5826 11.9998 22.5057C12.1185 22.5826 12.2593 22.6277 12.4106 22.6277H23.2375C23.6578 22.6277 23.9998 22.2836 23.9998 21.8603V19.4957C24 19.3001 23.8427 19.1418 23.6485 19.1418ZM3.54861 9.86281C3.34252 9.78747 3.21078 9.59553 3.21078 9.38091C3.21078 9.17261 3.36081 9.00163 3.54861 8.92032V9.86281ZM19.7989 13.7448L19.1089 15.1371C19.1087 15.1369 18.3423 14.5891 18.3315 14.5812C18.6622 14.1702 18.5067 14.3634 19.1944 13.509L19.7989 13.7448ZM17.8233 14.0881L16.9141 12.9582V12.6187C17.2096 12.7215 17.528 12.769 17.8277 12.769H17.8279C18.1378 12.769 18.4514 12.7097 18.7308 12.6039V12.9603L17.8233 14.0881ZM18.236 15.3812L18.1066 15.5772H17.5398L17.4105 15.3812L17.8231 15.0861L18.236 15.3812ZM11.9992 9.82139L11.09 8.69156V8.352C11.3843 8.45445 11.7025 8.50235 12.0036 8.50235H12.0037H12.0039C12.3131 8.50235 12.6269 8.44337 12.9068 8.33734V8.69361L11.9992 9.82139ZM12.4118 11.1145L12.2825 11.3106H11.7157L11.5863 11.1145L11.999 10.8194L12.4118 11.1145ZM9.23051 6.2935C9.28791 6.30918 9.34701 6.31992 9.40696 6.32742C9.51042 6.95796 9.85028 7.56259 10.3866 7.97374V8.57684L9.66926 8.85674C9.6276 8.76878 9.57562 8.68594 9.51398 8.61008V7.65515C9.51415 7.17479 9.41373 6.71317 9.23051 6.2935ZM13.8673 5.91865C13.8673 6.95455 13.0279 7.79459 12.0037 7.79459C10.8482 7.79459 10.076 6.89301 10.076 5.91865V4.2609C11.1862 4.30556 12.3394 3.97435 13.2822 3.3837C13.5992 3.72582 13.7879 3.92475 13.8673 4.01697C13.8673 4.89809 13.8673 5.23833 13.8673 5.91865ZM14.5382 6.32708C14.5978 6.31958 14.6565 6.30884 14.7138 6.29298C14.5312 6.71011 14.429 7.1707 14.429 7.65498V8.6348C14.3749 8.69975 14.3284 8.76895 14.2899 8.84157L13.6099 8.5765V7.93198C14.095 7.53907 14.4357 6.97279 14.5382 6.32708ZM10.6269 9.24284L11.49 10.3152L10.9013 10.7361C10.901 10.7363 10.9008 10.7366 10.9005 10.7368L10.7137 10.8704L10.0235 9.47825L10.6269 9.24284ZM12.8082 9.94054L13.3701 9.24233L13.9748 9.47808L13.2848 10.8704L13.0975 10.7366C13.0973 10.7364 13.0971 10.7363 13.097 10.7361L12.5073 10.3145L12.8082 9.94054ZM12.9854 11.5247L13.023 11.5516C13.1544 11.6455 13.3193 11.6767 13.4751 11.6373C13.6312 11.598 13.7621 11.4923 13.8339 11.3474L14.4273 10.1502C14.6311 10.4032 14.926 10.5569 15.2296 10.5951C15.3368 11.2719 15.7002 11.8492 16.2105 12.2406V12.8437L13.2216 14.0102L12.8404 11.7439L12.9854 11.5247ZM16.451 13.5095L17.3141 14.5819C16.9368 14.8517 16.5573 15.1231 16.5379 15.1369L15.8477 13.7448L16.451 13.5095ZM19.6914 10.1853C19.6916 11.196 18.8762 12.0613 17.8279 12.0613C16.6329 12.0613 15.9001 11.1191 15.9001 10.1853V8.52758C17.0024 8.5719 18.1571 8.24512 19.1064 7.65038C19.4234 7.9925 19.612 8.19143 19.6914 8.28365C19.6914 9.16477 19.6914 9.50501 19.6914 10.1853ZM20.7325 9.38091C20.7325 9.59604 20.6004 9.78747 20.3947 9.86281V8.90004C20.6074 8.97794 20.7325 9.17363 20.7325 9.38091ZM15.132 7.65515C15.132 6.17656 16.327 4.97377 17.7957 4.97377C19.2645 4.97377 20.4594 6.17673 20.4594 7.65515V8.18444C20.4434 8.18103 20.3994 8.17353 20.3935 8.1725C20.3887 8.07244 20.3635 8.01142 20.3095 7.93335C20.217 7.7997 20.0572 7.64032 19.538 7.07847C19.3566 6.88261 19.0578 6.83846 18.8258 6.99103C17.9594 7.56071 16.865 7.88238 15.8236 7.81436C15.531 7.7951 15.3192 7.93931 15.2314 8.17796C15.2237 8.17915 15.1368 8.19688 15.1319 8.19807L15.132 7.65515ZM15.1969 8.92032V9.8623C14.9901 9.7873 14.8591 9.59484 14.8591 9.38091C14.8591 9.17261 15.0089 9.00163 15.1969 8.92032ZM14.9082 5.11423C14.9082 5.26322 14.8442 5.40419 14.7324 5.50084C14.6845 5.54244 14.6298 5.57431 14.5704 5.59596V4.63319C14.7807 4.71024 14.9082 4.90474 14.9082 5.11423ZM11.9716 0.706924C13.4404 0.706924 14.6352 1.90988 14.6352 3.3883V3.91759C14.6193 3.91435 14.5753 3.90668 14.5693 3.90566C14.5641 3.79724 14.5331 3.73059 14.4698 3.64451C14.3756 3.51632 14.202 3.33989 13.7139 2.81163C13.5294 2.61236 13.2301 2.57383 13.0016 2.72418C12.0869 3.32574 10.977 3.6186 9.97119 3.54615C9.72514 3.5274 9.49332 3.67706 9.40746 3.91111C9.39968 3.9123 9.31281 3.93003 9.3079 3.93122V3.3883C9.30773 1.90988 10.5027 0.706924 11.9716 0.706924ZM9.37275 4.65365V5.59613C9.16667 5.52079 9.03493 5.32885 9.03493 5.11423C9.03493 4.90712 9.18377 4.73547 9.37275 4.65365ZM8.74621 8.90004C8.94298 8.97215 9.0693 9.14482 9.08166 9.35023C9.09741 9.57848 8.95805 9.78491 8.74621 9.86247V8.90004ZM8.7137 10.5949C9.04526 10.5532 9.34972 10.3773 9.5492 10.1067L10.1641 11.3472C10.2359 11.4923 10.3668 11.598 10.5229 11.6372C10.6773 11.676 10.8424 11.6462 10.975 11.5514L11.0126 11.5245L11.157 11.7435L10.776 14.0093L7.78523 12.8434V12.199C8.28358 11.7948 8.61379 11.2238 8.7137 10.5949ZM6.17484 14.0881L5.26567 12.9582V12.6187C5.55998 12.7211 5.87816 12.769 6.17924 12.769H6.17941C6.4937 12.769 6.8068 12.7082 7.08231 12.604V12.9605L6.17484 14.0881ZM6.58768 15.3812L6.45831 15.5772H5.89154L5.76217 15.3812L6.17484 15.0861L6.58768 15.3812ZM7.54595 13.509L8.15065 13.7448L7.46061 15.1369L7.27332 15.0031C7.27315 15.0029 7.27298 15.0028 7.27281 15.0026L6.68319 14.581L7.54595 13.509ZM4.25169 10.1853V8.52758C5.36778 8.57241 6.52181 8.23694 7.4579 7.65038C7.77185 7.98943 7.96337 8.19125 8.04296 8.28365C8.04296 9.16477 8.04296 9.50501 8.04296 10.1853C8.04296 11.2146 7.20931 12.0613 6.17941 12.0613C5.03267 12.0613 4.25169 11.1701 4.25169 10.1853ZM4.80254 13.5095L5.66565 14.5819L5.07703 15.0028C5.0767 15.0029 5.07653 15.0033 5.07619 15.0035L4.88941 15.1371L4.1992 13.7449L4.80254 13.5095ZM2.80133 21.92V16.7493C2.80133 16.5538 2.64401 16.3955 2.44979 16.3955C2.25556 16.3955 2.09824 16.554 2.09824 16.7493V21.92H0.762351C0.729669 21.92 0.703083 21.8932 0.703083 21.8603V16.3102C0.703083 15.1736 1.65458 14.7403 1.71605 14.7135L3.54048 14.0015L4.33974 15.6139C4.41154 15.7589 4.54244 15.8646 4.69857 15.9038C4.853 15.9427 5.01811 15.9129 5.15069 15.8181L5.18829 15.7912L5.33273 16.0102L4.54735 20.6816C4.54667 20.685 4.54617 20.6886 4.54566 20.6921C4.52314 20.8568 4.57394 21.0266 4.6818 21.1462L5.38032 21.9198L2.80133 21.92ZM5.25348 20.7262L6.00008 16.285H6.34976L7.09654 20.7262L6.17501 21.7468L5.25348 20.7262ZM11.6483 21.8603C11.6483 21.8932 11.6217 21.92 11.589 21.92H10.2533V16.7493C10.2533 16.5538 10.096 16.3955 9.90176 16.3955C9.70753 16.3955 9.55022 16.554 9.55022 16.7493V21.92H6.96886L7.66754 21.1462C7.7754 21.0268 7.82637 20.857 7.80368 20.6921C7.80317 20.6886 7.80267 20.6851 7.80199 20.6816L7.01661 16.0102L7.16105 15.7912L7.19865 15.8181C7.2928 15.8854 7.40405 15.9205 7.51717 15.9205C7.72342 15.9205 7.91545 15.8043 8.00977 15.6139L8.80886 14.0015L10.6345 14.7132C11.1665 14.9462 11.6481 15.5471 11.6481 16.3102L11.6483 21.8603ZM12 15.0243C11.8544 14.788 11.6605 14.5695 11.4268 14.383L11.8242 12.0183H12.1739L12.5717 14.384C12.3317 14.5759 12.1404 14.7965 12 15.0243ZM14.4498 21.92V16.7493C14.4498 16.5538 14.2925 16.3955 14.0982 16.3955C13.904 16.3955 13.7467 16.554 13.7467 16.7493V21.92H12.411C12.3783 21.92 12.3517 21.8932 12.3517 21.8603V16.3102C12.3517 15.8895 12.4828 15.5021 12.762 15.1765C12.9481 14.9615 13.195 14.7875 13.3648 14.7135L15.1893 14.0015L15.9885 15.6139C16.0603 15.7589 16.1912 15.8646 16.3474 15.9038C16.5018 15.9427 16.6669 15.9129 16.7995 15.8181L16.8371 15.7912L16.9815 16.0102L16.1961 20.6816C16.1955 20.685 16.195 20.6886 16.1945 20.6921C16.1719 20.8568 16.2227 21.0266 16.3306 21.1462L17.0291 21.9198L14.4498 21.92ZM16.9018 20.7264L17.6485 16.2852H17.9982L18.745 20.7264L17.8235 21.747L16.9018 20.7264Z" fill="black"/>
</svg>
