<svg display="none" xmlns="http://www.w3.org/2000/svg" xmlns:xlink="http://www.w3.org/1999/xlink">
    <symbol id="advantage1" viewBox="0 0 24 24">
        <g>
			<path d="M8.25 2.8125C8.50875 2.8125 8.71875 2.6025 8.71875 2.34375C8.71875 2.085 8.50875 1.875 8.25 1.875C7.99125 1.875 7.78125 2.085 7.78125 2.34375C7.78125 2.6025 7.99125 2.8125 8.25 2.8125Z" fill="black"/>
			<path d="M5.15625 9.65625C5.415 9.65625 5.625 9.44625 5.625 9.1875C5.625 8.92875 5.415 8.71875 5.15625 8.71875C4.8975 8.71875 4.6875 8.92875 4.6875 9.1875C4.6875 9.44625 4.8975 9.65625 5.15625 9.65625Z" fill="black"/>
			<path d="M22.5938 6.84375H22.125V5.90625C22.125 5.44519 21.9591 5.00958 21.6562 4.66702V3.5625C21.6562 2.78705 21.0255 2.15625 20.25 2.15625C19.4745 2.15625 18.8438 2.78705 18.8438 3.5625V4.66753C18.5438 5.00737 18.375 5.44777 18.375 5.90625V18.8438C18.375 21.1829 19.7148 22.6273 19.7812 22.7499V23.5312C19.7812 23.7901 19.9911 24 20.25 24C20.5089 24 20.7188 23.7901 20.7188 23.5312V22.7499C20.785 22.6275 22.125 21.1954 22.125 18.8438V7.78125H22.5938C22.8523 7.78125 23.0625 7.99144 23.0625 8.25V12C23.0625 12.2589 23.2724 12.4688 23.5312 12.4688C23.7901 12.4688 24 12.2589 24 12V8.25C24 7.47455 23.3692 6.84375 22.5938 6.84375ZM19.3125 5.90625C19.3125 5.39156 19.7318 4.96875 20.25 4.96875C20.7548 4.96875 21.1875 5.37708 21.1875 5.90625V6.84375H19.3125V5.90625ZM20.25 3.09375C20.5086 3.09375 20.7188 3.30394 20.7188 3.5625V4.0913C20.567 4.05192 20.4095 4.03125 20.25 4.03125C20.0903 4.03125 19.933 4.05192 19.7812 4.09111V3.5625C19.7812 3.30394 19.9914 3.09375 20.25 3.09375ZM20.25 21.8082C19.7342 21.0734 19.417 20.2051 19.3343 19.3119H21.1657C21.083 20.2051 20.7658 21.0734 20.25 21.8082ZM21.1875 18.375H19.3125V7.78125H21.1875V18.375Z" fill="black"/>
			<path d="M15.0938 24C15.8692 24 16.5 23.3692 16.5 22.5938V5.15625C16.5 4.3808 15.8692 3.75 15.0938 3.75H12.6694C12.4759 3.20433 11.9548 2.8125 11.3438 2.8125H10.5447C10.5773 2.65889 10.5938 2.50233 10.5938 2.34375C10.5938 1.05141 9.54234 0 8.25 0C6.95766 0 5.90625 1.05141 5.90625 2.34375C5.90625 2.50233 5.92275 2.65889 5.95533 2.8125H5.15625C4.54523 2.8125 4.02413 3.20433 3.83058 3.75H1.40625C0.630797 3.75 0 4.3808 0 5.15625V22.5938C0 23.3692 0.630797 24 1.40625 24H15.0938ZM13.6875 19.038V21.1875H11.538L13.6875 19.038ZM10.875 20.5245V18.375H13.0245L10.875 20.5245ZM13.6875 17.4375H10.4062C10.1474 17.4375 9.9375 17.6474 9.9375 17.9062V21.1875H2.8125V6.5625H13.6875V17.4375ZM5.15625 3.75H6.63558C6.80348 3.75 6.95841 3.66028 7.04208 3.51487C7.12556 3.36947 7.12519 3.19041 7.04081 3.04538C6.91003 2.82094 6.84375 2.58473 6.84375 2.34375C6.84375 1.5683 7.47455 0.9375 8.25 0.9375C9.02545 0.9375 9.65625 1.5683 9.65625 2.34375C9.65625 2.58473 9.58997 2.82094 9.45923 3.04542C9.37481 3.19045 9.37425 3.36952 9.45797 3.51492C9.54164 3.66047 9.69656 3.75005 9.86447 3.75005H11.3438C11.6023 3.75005 11.8125 3.96023 11.8125 4.2188V5.62505H4.6875V4.21875C4.6875 3.96019 4.89769 3.75 5.15625 3.75ZM0.9375 22.5938V5.15625C0.9375 4.89769 1.14769 4.6875 1.40625 4.6875H3.75V5.625H2.34375C2.08486 5.625 1.875 5.83486 1.875 6.09375V21.6562C1.875 21.9151 2.08486 22.125 2.34375 22.125H14.1562C14.4151 22.125 14.625 21.9151 14.625 21.6562C14.625 20.0651 14.625 9.87816 14.625 6.09375C14.625 5.83486 14.4151 5.625 14.1562 5.625H12.75V4.6875H15.0938C15.3523 4.6875 15.5625 4.89769 15.5625 5.15625V22.5938C15.5625 22.8523 15.3523 23.0625 15.0938 23.0625H1.40625C1.14769 23.0625 0.9375 22.8523 0.9375 22.5938Z" fill="black"/>
			<path d="M11.3438 8.71875H7.03125C6.77236 8.71875 6.5625 8.92861 6.5625 9.1875C6.5625 9.44639 6.77236 9.65625 7.03125 9.65625H11.3438C11.6026 9.65625 11.8125 9.44639 11.8125 9.1875C11.8125 8.92861 11.6026 8.71875 11.3438 8.71875Z" fill="black"/>
			<path d="M11.3438 13.6875H5.15625C4.89736 13.6875 4.6875 13.8974 4.6875 14.1562C4.6875 14.4151 4.89736 14.625 5.15625 14.625H11.3438C11.6026 14.625 11.8125 14.4151 11.8125 14.1562C11.8125 13.8974 11.6026 13.6875 11.3438 13.6875Z" fill="black"/>
			<path d="M11.3438 15.5625H5.15625C4.89736 15.5625 4.6875 15.7724 4.6875 16.0312C4.6875 16.2901 4.89736 16.5 5.15625 16.5H11.3438C11.6026 16.5 11.8125 16.2901 11.8125 16.0312C11.8125 15.7724 11.6026 15.5625 11.3438 15.5625Z" fill="black"/>
			<path d="M11.3438 11.8125H5.15625C4.89736 11.8125 4.6875 12.0224 4.6875 12.2812C4.6875 12.5401 4.89736 12.75 5.15625 12.75H11.3438C11.6026 12.75 11.8125 12.5401 11.8125 12.2812C11.8125 12.0224 11.6026 11.8125 11.3438 11.8125Z" fill="black"/>
   		</g>
	</symbol>
	<symbol id="advantage2" viewBox="0 0 24 24">
        <g>
			<path d="M11.0746 16.2781C11.2578 16.0948 11.2578 15.7981 11.0746 15.6149C10.8911 15.4321 10.5939 15.4321 10.4103 15.6149C10.2272 15.7981 10.2272 16.0948 10.4103 16.2781C10.5939 16.4608 10.8911 16.4608 11.0746 16.2781Z" fill="black"/>
			<path d="M8.85083 5.15479C8.85083 7.99716 11.1678 10.3098 14.0157 10.3098C16.8636 10.3098 19.1806 7.99716 19.1806 5.15479C19.1806 2.31242 16.8636 0 14.0157 0C11.1678 0 8.85083 2.31242 8.85083 5.15479ZM18.2416 5.15479C18.2416 7.48041 16.3459 9.37247 14.0157 9.37247C11.6855 9.37247 9.78982 7.48041 9.78982 5.15479C9.78982 2.82933 11.6855 0.937315 14.0157 0.937315C16.346 0.937315 18.2416 2.82933 18.2416 5.15479Z" fill="black"/>
			<path d="M5.43194 23.8614C5.61393 24.0446 5.91023 24.0466 6.0946 23.8653L8.37102 21.627C8.75775 21.2411 8.87535 20.6695 8.70529 20.1728L9.19495 19.7015C9.45858 19.4473 9.80571 19.3073 10.1726 19.3073H16.4146C17.522 19.3073 18.5687 18.8828 19.3622 18.1122C19.3948 18.0805 19.1143 18.4102 23.6206 13.035C24.2889 12.2458 24.1889 11.0607 23.3975 10.393C22.611 9.7314 21.4327 9.82644 20.7626 10.6021L17.9919 13.4442C17.642 13.0145 17.1085 12.7466 16.5321 12.7466H11.2962C10.5511 12.4355 9.7606 12.2781 8.94494 12.2781C6.68391 12.2781 4.70966 13.3203 3.65017 15.2744C3.20381 15.19 2.73303 15.3247 2.39437 15.6628L0.160675 17.8986C-0.0216799 18.0811 -0.0220428 18.3765 0.159949 18.5596L5.43194 23.8614ZM8.94474 13.2151C9.66392 13.2151 10.3592 13.3595 11.0118 13.6445C11.0713 13.6705 11.1353 13.6838 11.2001 13.6838H16.5321C17.0412 13.6838 17.4713 14.0982 17.4713 14.621C17.4713 15.1379 17.05 15.5583 16.5321 15.5583H12.7012C12.442 15.5583 12.2317 15.7681 12.2317 16.0269C12.2317 16.2858 12.442 16.4954 12.7012 16.4954H16.5321C17.5678 16.4954 18.4102 15.6546 18.4102 14.621C18.4102 14.5386 18.4044 14.4569 18.3937 14.376C21.0739 11.6263 21.4519 11.2399 21.468 11.2207C21.8026 10.8265 22.3967 10.7765 22.7919 11.109C23.1874 11.4428 23.2375 12.0353 22.9019 12.4318L18.6905 17.4565C18.0756 18.0458 17.2681 18.3701 16.4147 18.3701H10.1726C9.56099 18.3701 8.98195 18.6035 8.54274 19.0271L8.14372 19.4114L4.46526 15.7403C5.32498 14.1306 6.93819 13.2151 8.94474 13.2151ZM3.05883 16.325C3.21369 16.1704 3.45144 16.1426 3.64025 16.259C3.72153 16.3085 3.48817 16.0964 7.70708 20.3013C7.89476 20.4886 7.88468 20.7871 7.70966 20.9618L5.76899 22.8699L1.15542 18.2302L3.05883 16.325Z" fill="black"/>
			<path d="M13.4523 2.34321V2.89234C12.9058 3.08569 12.5132 3.60666 12.5132 4.21768C12.5132 4.99275 13.145 5.62357 13.9218 5.62357C14.1807 5.62357 14.3913 5.83378 14.3913 6.09215C14.3913 6.35052 14.1807 6.56073 13.9218 6.56073C13.7213 6.56073 13.5046 6.43494 13.3122 6.20622C13.1452 6.00809 12.8491 5.98266 12.6506 6.14909C12.4521 6.31571 12.4264 6.61122 12.5933 6.80936C12.8443 7.10728 13.1395 7.31491 13.4523 7.41965V7.96658C13.4523 8.22547 13.6626 8.43515 13.9218 8.43515C14.181 8.43515 14.3913 8.22551 14.3913 7.96658V7.41744C14.9378 7.22389 15.3304 6.70297 15.3304 6.09211C15.3304 5.31683 14.6986 4.68622 13.9218 4.68622C13.6629 4.68622 13.4523 4.47601 13.4523 4.21764C13.4523 3.95927 13.6629 3.7489 13.9218 3.7489C14.0882 3.7489 14.2638 3.83368 14.4296 3.99391C14.616 4.1739 14.9132 4.16895 15.0936 3.98313C15.2739 3.79711 15.2689 3.50047 15.0828 3.32048C14.8444 3.09032 14.6059 2.96015 14.3913 2.88908V2.34325C14.3913 2.08436 14.181 1.87451 13.9218 1.87451C13.6626 1.87451 13.4523 2.08427 13.4523 2.34321Z" fill="black"/>
   		</g>
	</symbol>
	<symbol id="advantage3" viewBox="0 0 24 23">
        <g>
       		<path d="M23.6485 19.1418C23.4542 19.1418 23.2969 19.3003 23.2969 19.4957V21.8603C23.2969 21.8932 23.2703 21.92 23.2376 21.92H21.9018V16.7493C21.9018 16.5538 21.7444 16.3955 21.5502 16.3955C21.356 16.3955 21.1987 16.554 21.1987 16.7493V21.92H18.6173L19.316 21.1462C19.4239 21.0268 19.4748 20.857 19.4521 20.6921C19.4516 20.6886 19.4511 20.6851 19.4504 20.6816L18.6651 16.0102L18.8095 15.7912L18.8471 15.8181C18.976 15.9103 19.1402 15.9439 19.2992 15.9038C19.4554 15.8645 19.5863 15.7588 19.6581 15.6139L20.4572 14.0015L22.2828 14.7132C22.3547 14.7447 23.2964 15.1794 23.2964 16.3102V17.844C23.2964 18.0396 23.4539 18.1979 23.648 18.1979C23.8422 18.1979 23.9995 18.0394 23.9995 17.844V16.3102C23.9995 14.677 22.6081 14.0824 22.5488 14.0579C22.5466 14.0569 22.5444 14.056 22.542 14.0552L19.4333 12.8432V12.1987C19.9187 11.8057 20.2594 11.2393 20.3616 10.5936C20.6036 10.5631 20.8282 10.4654 21.0144 10.3041C21.2817 10.0728 21.4349 9.73633 21.4349 9.38074C21.4349 9.09709 21.337 8.82555 21.1619 8.60991V7.65498C21.1619 5.78603 19.6514 4.26567 17.795 4.26567C16.9615 4.26567 16.1983 4.57285 15.6097 5.07963C15.6021 4.80842 15.5058 4.55 15.3376 4.34323V3.3883C15.3376 1.51935 13.8271 -0.00100708 11.9707 -0.00100708C10.1141 -0.00100708 8.6038 1.51952 8.6038 3.3883V4.36812C8.4348 4.57148 8.34031 4.81644 8.33184 5.07656C7.95626 4.75354 7.50684 4.51029 7.00577 4.3775C6.81764 4.32772 6.62561 4.44057 6.57617 4.62961C6.52672 4.81865 6.63882 5.0123 6.82661 5.06207C7.99436 5.37163 8.81005 6.43788 8.81005 7.65498V8.18427C8.79481 8.18103 8.74604 8.17268 8.74418 8.17233C8.73943 8.07244 8.7142 8.01142 8.66018 7.93317C8.57027 7.80294 8.40855 7.64083 7.88869 7.0783C7.70344 6.87801 7.40388 6.84119 7.17646 6.99086C6.28609 7.5764 5.20437 7.87471 4.20055 7.81539C3.87356 7.79612 3.66934 7.94068 3.5823 8.17779C3.57451 8.17898 3.48765 8.19671 3.48274 8.1979V7.65498C3.48274 6.48152 4.26168 5.42584 5.37693 5.08764C5.56286 5.03122 5.66819 4.83382 5.61214 4.64666C5.55609 4.45949 5.35966 4.35346 5.17406 4.40988C4.4957 4.61546 3.88609 5.04366 3.45733 5.61539C3.01367 6.2069 2.77931 6.9121 2.77931 7.65498V8.6348C2.60219 8.84788 2.50651 9.10664 2.50651 9.38074C2.50651 9.98657 2.95 10.515 3.5818 10.5938C3.68526 11.2243 4.02512 11.8289 4.56141 12.2401V12.8432L1.45748 14.0553C1.45527 14.0562 1.45307 14.057 1.45087 14.0581C1.3916 14.0826 0 14.6772 0 16.3102V21.8603C0 22.2836 0.342059 22.6277 0.762351 22.6277H11.589C11.7404 22.6277 11.8811 22.5826 11.9998 22.5057C12.1185 22.5826 12.2593 22.6277 12.4106 22.6277H23.2375C23.6578 22.6277 23.9998 22.2836 23.9998 21.8603V19.4957C24 19.3001 23.8427 19.1418 23.6485 19.1418ZM3.54861 9.86281C3.34252 9.78747 3.21078 9.59553 3.21078 9.38091C3.21078 9.17261 3.36081 9.00163 3.54861 8.92032V9.86281ZM19.7989 13.7448L19.1089 15.1371C19.1087 15.1369 18.3423 14.5891 18.3315 14.5812C18.6622 14.1702 18.5067 14.3634 19.1944 13.509L19.7989 13.7448ZM17.8233 14.0881L16.9141 12.9582V12.6187C17.2096 12.7215 17.528 12.769 17.8277 12.769H17.8279C18.1378 12.769 18.4514 12.7097 18.7308 12.6039V12.9603L17.8233 14.0881ZM18.236 15.3812L18.1066 15.5772H17.5398L17.4105 15.3812L17.8231 15.0861L18.236 15.3812ZM11.9992 9.82139L11.09 8.69156V8.352C11.3843 8.45445 11.7025 8.50235 12.0036 8.50235H12.0037H12.0039C12.3131 8.50235 12.6269 8.44337 12.9068 8.33734V8.69361L11.9992 9.82139ZM12.4118 11.1145L12.2825 11.3106H11.7157L11.5863 11.1145L11.999 10.8194L12.4118 11.1145ZM9.23051 6.2935C9.28791 6.30918 9.34701 6.31992 9.40696 6.32742C9.51042 6.95796 9.85028 7.56259 10.3866 7.97374V8.57684L9.66926 8.85674C9.6276 8.76878 9.57562 8.68594 9.51398 8.61008V7.65515C9.51415 7.17479 9.41373 6.71317 9.23051 6.2935ZM13.8673 5.91865C13.8673 6.95455 13.0279 7.79459 12.0037 7.79459C10.8482 7.79459 10.076 6.89301 10.076 5.91865V4.2609C11.1862 4.30556 12.3394 3.97435 13.2822 3.3837C13.5992 3.72582 13.7879 3.92475 13.8673 4.01697C13.8673 4.89809 13.8673 5.23833 13.8673 5.91865ZM14.5382 6.32708C14.5978 6.31958 14.6565 6.30884 14.7138 6.29298C14.5312 6.71011 14.429 7.1707 14.429 7.65498V8.6348C14.3749 8.69975 14.3284 8.76895 14.2899 8.84157L13.6099 8.5765V7.93198C14.095 7.53907 14.4357 6.97279 14.5382 6.32708ZM10.6269 9.24284L11.49 10.3152L10.9013 10.7361C10.901 10.7363 10.9008 10.7366 10.9005 10.7368L10.7137 10.8704L10.0235 9.47825L10.6269 9.24284ZM12.8082 9.94054L13.3701 9.24233L13.9748 9.47808L13.2848 10.8704L13.0975 10.7366C13.0973 10.7364 13.0971 10.7363 13.097 10.7361L12.5073 10.3145L12.8082 9.94054ZM12.9854 11.5247L13.023 11.5516C13.1544 11.6455 13.3193 11.6767 13.4751 11.6373C13.6312 11.598 13.7621 11.4923 13.8339 11.3474L14.4273 10.1502C14.6311 10.4032 14.926 10.5569 15.2296 10.5951C15.3368 11.2719 15.7002 11.8492 16.2105 12.2406V12.8437L13.2216 14.0102L12.8404 11.7439L12.9854 11.5247ZM16.451 13.5095L17.3141 14.5819C16.9368 14.8517 16.5573 15.1231 16.5379 15.1369L15.8477 13.7448L16.451 13.5095ZM19.6914 10.1853C19.6916 11.196 18.8762 12.0613 17.8279 12.0613C16.6329 12.0613 15.9001 11.1191 15.9001 10.1853V8.52758C17.0024 8.5719 18.1571 8.24512 19.1064 7.65038C19.4234 7.9925 19.612 8.19143 19.6914 8.28365C19.6914 9.16477 19.6914 9.50501 19.6914 10.1853ZM20.7325 9.38091C20.7325 9.59604 20.6004 9.78747 20.3947 9.86281V8.90004C20.6074 8.97794 20.7325 9.17363 20.7325 9.38091ZM15.132 7.65515C15.132 6.17656 16.327 4.97377 17.7957 4.97377C19.2645 4.97377 20.4594 6.17673 20.4594 7.65515V8.18444C20.4434 8.18103 20.3994 8.17353 20.3935 8.1725C20.3887 8.07244 20.3635 8.01142 20.3095 7.93335C20.217 7.7997 20.0572 7.64032 19.538 7.07847C19.3566 6.88261 19.0578 6.83846 18.8258 6.99103C17.9594 7.56071 16.865 7.88238 15.8236 7.81436C15.531 7.7951 15.3192 7.93931 15.2314 8.17796C15.2237 8.17915 15.1368 8.19688 15.1319 8.19807L15.132 7.65515ZM15.1969 8.92032V9.8623C14.9901 9.7873 14.8591 9.59484 14.8591 9.38091C14.8591 9.17261 15.0089 9.00163 15.1969 8.92032ZM14.9082 5.11423C14.9082 5.26322 14.8442 5.40419 14.7324 5.50084C14.6845 5.54244 14.6298 5.57431 14.5704 5.59596V4.63319C14.7807 4.71024 14.9082 4.90474 14.9082 5.11423ZM11.9716 0.706924C13.4404 0.706924 14.6352 1.90988 14.6352 3.3883V3.91759C14.6193 3.91435 14.5753 3.90668 14.5693 3.90566C14.5641 3.79724 14.5331 3.73059 14.4698 3.64451C14.3756 3.51632 14.202 3.33989 13.7139 2.81163C13.5294 2.61236 13.2301 2.57383 13.0016 2.72418C12.0869 3.32574 10.977 3.6186 9.97119 3.54615C9.72514 3.5274 9.49332 3.67706 9.40746 3.91111C9.39968 3.9123 9.31281 3.93003 9.3079 3.93122V3.3883C9.30773 1.90988 10.5027 0.706924 11.9716 0.706924ZM9.37275 4.65365V5.59613C9.16667 5.52079 9.03493 5.32885 9.03493 5.11423C9.03493 4.90712 9.18377 4.73547 9.37275 4.65365ZM8.74621 8.90004C8.94298 8.97215 9.0693 9.14482 9.08166 9.35023C9.09741 9.57848 8.95805 9.78491 8.74621 9.86247V8.90004ZM8.7137 10.5949C9.04526 10.5532 9.34972 10.3773 9.5492 10.1067L10.1641 11.3472C10.2359 11.4923 10.3668 11.598 10.5229 11.6372C10.6773 11.676 10.8424 11.6462 10.975 11.5514L11.0126 11.5245L11.157 11.7435L10.776 14.0093L7.78523 12.8434V12.199C8.28358 11.7948 8.61379 11.2238 8.7137 10.5949ZM6.17484 14.0881L5.26567 12.9582V12.6187C5.55998 12.7211 5.87816 12.769 6.17924 12.769H6.17941C6.4937 12.769 6.8068 12.7082 7.08231 12.604V12.9605L6.17484 14.0881ZM6.58768 15.3812L6.45831 15.5772H5.89154L5.76217 15.3812L6.17484 15.0861L6.58768 15.3812ZM7.54595 13.509L8.15065 13.7448L7.46061 15.1369L7.27332 15.0031C7.27315 15.0029 7.27298 15.0028 7.27281 15.0026L6.68319 14.581L7.54595 13.509ZM4.25169 10.1853V8.52758C5.36778 8.57241 6.52181 8.23694 7.4579 7.65038C7.77185 7.98943 7.96337 8.19125 8.04296 8.28365C8.04296 9.16477 8.04296 9.50501 8.04296 10.1853C8.04296 11.2146 7.20931 12.0613 6.17941 12.0613C5.03267 12.0613 4.25169 11.1701 4.25169 10.1853ZM4.80254 13.5095L5.66565 14.5819L5.07703 15.0028C5.0767 15.0029 5.07653 15.0033 5.07619 15.0035L4.88941 15.1371L4.1992 13.7449L4.80254 13.5095ZM2.80133 21.92V16.7493C2.80133 16.5538 2.64401 16.3955 2.44979 16.3955C2.25556 16.3955 2.09824 16.554 2.09824 16.7493V21.92H0.762351C0.729669 21.92 0.703083 21.8932 0.703083 21.8603V16.3102C0.703083 15.1736 1.65458 14.7403 1.71605 14.7135L3.54048 14.0015L4.33974 15.6139C4.41154 15.7589 4.54244 15.8646 4.69857 15.9038C4.853 15.9427 5.01811 15.9129 5.15069 15.8181L5.18829 15.7912L5.33273 16.0102L4.54735 20.6816C4.54667 20.685 4.54617 20.6886 4.54566 20.6921C4.52314 20.8568 4.57394 21.0266 4.6818 21.1462L5.38032 21.9198L2.80133 21.92ZM5.25348 20.7262L6.00008 16.285H6.34976L7.09654 20.7262L6.17501 21.7468L5.25348 20.7262ZM11.6483 21.8603C11.6483 21.8932 11.6217 21.92 11.589 21.92H10.2533V16.7493C10.2533 16.5538 10.096 16.3955 9.90176 16.3955C9.70753 16.3955 9.55022 16.554 9.55022 16.7493V21.92H6.96886L7.66754 21.1462C7.7754 21.0268 7.82637 20.857 7.80368 20.6921C7.80317 20.6886 7.80267 20.6851 7.80199 20.6816L7.01661 16.0102L7.16105 15.7912L7.19865 15.8181C7.2928 15.8854 7.40405 15.9205 7.51717 15.9205C7.72342 15.9205 7.91545 15.8043 8.00977 15.6139L8.80886 14.0015L10.6345 14.7132C11.1665 14.9462 11.6481 15.5471 11.6481 16.3102L11.6483 21.8603ZM12 15.0243C11.8544 14.788 11.6605 14.5695 11.4268 14.383L11.8242 12.0183H12.1739L12.5717 14.384C12.3317 14.5759 12.1404 14.7965 12 15.0243ZM14.4498 21.92V16.7493C14.4498 16.5538 14.2925 16.3955 14.0982 16.3955C13.904 16.3955 13.7467 16.554 13.7467 16.7493V21.92H12.411C12.3783 21.92 12.3517 21.8932 12.3517 21.8603V16.3102C12.3517 15.8895 12.4828 15.5021 12.762 15.1765C12.9481 14.9615 13.195 14.7875 13.3648 14.7135L15.1893 14.0015L15.9885 15.6139C16.0603 15.7589 16.1912 15.8646 16.3474 15.9038C16.5018 15.9427 16.6669 15.9129 16.7995 15.8181L16.8371 15.7912L16.9815 16.0102L16.1961 20.6816C16.1955 20.685 16.195 20.6886 16.1945 20.6921C16.1719 20.8568 16.2227 21.0266 16.3306 21.1462L17.0291 21.9198L14.4498 21.92ZM16.9018 20.7264L17.6485 16.2852H17.9982L18.745 20.7264L17.8235 21.747L16.9018 20.7264Z" fill="black"/>
   		</g>
	</symbol>
	<symbol id="advantage4" viewBox="0 0 24 31">
        <g>
			<path d="M17.5451 29.4619H0.880156V7.48422C0.880156 7.23815 0.683111 7.03873 0.440078 7.03873C0.197045 7.03873 0 7.23815 0 7.48422V29.6104C0 30.0199 0.329064 30.3529 0.73348 30.3529H17.5451C17.7881 30.3529 17.9851 30.1535 17.9852 29.9075C17.9852 29.6613 17.7881 29.4619 17.5451 29.4619Z" fill="black"/>
			<path d="M23.8763 4.02932L20.1356 0.135925C20.0527 0.0496511 19.9389 0.00100708 19.8201 0.00100708H0.734457C0.33004 0.00100708 0.00102693 0.334172 0.000976562 0.743565V4.21834C0.000976562 4.46441 0.198022 4.66383 0.441055 4.66383C0.684087 4.66383 0.881133 4.46441 0.881133 4.21834V0.892097H19.6342L23.1208 4.52096V29.4628H20.6266C20.3835 29.4628 20.1865 29.6623 20.1865 29.9083C20.1865 30.1544 20.3835 30.3538 20.6266 30.3538H23.2674C23.6719 30.3538 24.0009 30.0208 24.0009 29.6114V4.33989C24.0009 4.22384 23.9562 4.11248 23.8763 4.02932Z" fill="black"/>
			<path d="M23.8754 4.02834L20.1346 0.13495C20.0097 0.00497814 19.8195 -0.0354057 19.6536 0.032818C19.4877 0.101042 19.3792 0.264259 19.3792 0.445628V4.33892C19.3792 4.58499 19.5762 4.78441 19.8192 4.78441H23.56C23.7369 4.78441 23.8966 4.67723 23.9653 4.51223C24.0341 4.34733 23.9987 4.15663 23.8754 4.02834ZM20.2593 3.89338V1.54246L22.518 3.89338H20.2593Z" fill="black"/>
			<path d="M14.0368 2.36536H3.43319C3.02872 2.36536 2.69971 2.69847 2.69971 3.10786V5.57009C2.69971 5.97953 3.02877 6.31259 3.43319 6.31259H14.0369C14.4413 6.31259 14.7704 5.97948 14.7704 5.57014V3.10781C14.7703 2.69832 14.4413 2.36536 14.0368 2.36536ZM13.8901 5.4215H3.57986V3.25629H13.8901V5.4215Z" fill="black"/>
			<path d="M7.09524 8.64413C6.90182 8.49539 6.62569 8.53333 6.47856 8.72928L4.5341 11.3192L3.95011 10.8019C3.76722 10.6398 3.48923 10.6587 3.32911 10.8439C3.16903 11.0291 3.18762 11.3105 3.37051 11.4725L4.30935 12.3041C4.38994 12.3754 4.49305 12.4143 4.59912 12.4143C4.61388 12.4143 4.62869 12.4135 4.64355 12.4121C4.76489 12.3996 4.87575 12.3367 4.94955 12.2384L7.1793 9.26839C7.32638 9.07249 7.28871 8.79302 7.09524 8.64413Z" fill="black"/>
			<path d="M20.3398 8.55322H9.25551C9.01248 8.55322 8.81543 8.75264 8.81543 8.99872C8.81543 9.24479 9.01248 9.44421 9.25551 9.44421H20.3398C20.5828 9.44421 20.7798 9.24479 20.7798 8.99872C20.7799 8.75264 20.5829 8.55322 20.3398 8.55322Z" fill="black"/>
			<path d="M16.4519 10.0381H9.25551C9.01248 10.0381 8.81543 10.2376 8.81543 10.4836C8.81543 10.7297 9.01248 10.9291 9.25551 10.9291H16.4519C16.695 10.9291 16.892 10.7297 16.892 10.4836C16.8921 10.2376 16.695 10.0381 16.4519 10.0381Z" fill="black"/>
			<path d="M18.0949 11.5232H9.25551C9.01248 11.5232 8.81543 11.7226 8.81543 11.9687C8.81543 12.2148 9.01248 12.4142 9.25551 12.4142H18.0949C18.3379 12.4142 18.535 12.2148 18.535 11.9687C18.535 11.7227 18.338 11.5232 18.0949 11.5232Z" fill="black"/>
			<path d="M7.09524 14.703C6.90182 14.5543 6.62569 14.5922 6.47856 14.7882L4.5341 17.3781L3.95011 16.8609C3.76722 16.6988 3.48923 16.7176 3.32911 16.9028C3.16903 17.088 3.18762 17.3694 3.37051 17.5314L4.30935 18.363C4.38994 18.4343 4.49305 18.4732 4.59912 18.4732C4.61388 18.4732 4.62869 18.4724 4.64355 18.471C4.76489 18.4585 4.87575 18.3956 4.94955 18.2973L7.1793 15.3273C7.32638 15.1314 7.28871 14.852 7.09524 14.703Z" fill="black"/>
			<path d="M20.3398 14.6122H9.25551C9.01248 14.6122 8.81543 14.8116 8.81543 15.0577C8.81543 15.3038 9.01248 15.5032 9.25551 15.5032H20.3398C20.5828 15.5032 20.7798 15.3038 20.7798 15.0577C20.7799 14.8116 20.5829 14.6122 20.3398 14.6122Z" fill="black"/>
			<path d="M16.4519 16.0971H9.25551C9.01248 16.0971 8.81543 16.2966 8.81543 16.5426C8.81543 16.7887 9.01248 16.9881 9.25551 16.9881H16.4519C16.695 16.9881 16.892 16.7887 16.892 16.5426C16.8921 16.2966 16.695 16.0971 16.4519 16.0971Z" fill="black"/>
			<path d="M18.0949 17.5821H9.25551C9.01248 17.5821 8.81543 17.7815 8.81543 18.0276C8.81543 18.2737 9.01248 18.4731 9.25551 18.4731H18.0949C18.3379 18.4731 18.535 18.2737 18.535 18.0276C18.535 17.7816 18.338 17.5821 18.0949 17.5821Z" fill="black"/>
			<path d="M20.3398 20.6711H9.25551C9.01248 20.6711 8.81543 20.8705 8.81543 21.1166C8.81543 21.3627 9.01248 21.5621 9.25551 21.5621H20.3398C20.5828 21.5621 20.7798 21.3627 20.7798 21.1166C20.7799 20.8705 20.5829 20.6711 20.3398 20.6711Z" fill="black"/>
			<path d="M16.4519 22.1561H9.25551C9.01248 22.1561 8.81543 22.3555 8.81543 22.6016C8.81543 22.8477 9.01248 23.0471 9.25551 23.0471H16.4519C16.695 23.0471 16.892 22.8477 16.892 22.6016C16.8921 22.3555 16.695 22.1561 16.4519 22.1561Z" fill="black"/>
			<path d="M18.0949 23.6411H9.25551C9.01248 23.6411 8.81543 23.8405 8.81543 24.0866C8.81543 24.3327 9.01248 24.5321 9.25551 24.5321H18.0949C18.3379 24.5321 18.535 24.3327 18.535 24.0866C18.535 23.8405 18.338 23.6411 18.0949 23.6411Z" fill="black"/>
			<path d="M6.30081 20.6711H3.9537C3.54923 20.6711 3.22021 21.0042 3.22021 21.4136V23.7896C3.22021 24.1991 3.54928 24.5321 3.9537 24.5321H6.30081C6.70528 24.5321 7.03429 24.199 7.03429 23.7896V21.4136C7.03434 21.0042 6.70528 20.6711 6.30081 20.6711ZM6.15419 23.6411H4.10047V21.5622H6.15419V23.6411Z" fill="black"/>
   		</g>
	</symbol>
	<symbol id="advantage5" viewBox="0 0 24 34">
        <g>
			<path d="M12 29.0203C5.38327 29.0203 0 23.6279 0 17C0 10.3721 5.38327 4.97971 12 4.97971C18.6167 4.97971 24 10.3721 24 17C24 23.6279 18.6167 29.0203 12 29.0203ZM12 5.70822C5.78398 5.70822 0.727281 10.7735 0.727281 17C0.727281 23.2265 5.78398 28.2918 12 28.2918C18.216 28.2918 23.2727 23.2265 23.2727 17C23.2727 10.7735 18.216 5.70822 12 5.70822Z" fill="black"/>
			<path d="M11.9999 29.0203C9.50176 29.0203 7.10104 28.2495 5.05522 26.791C4.94613 26.7131 4.88795 26.5798 4.9054 26.4465C4.92286 26.3132 5.01305 26.1995 5.13957 26.1529C8.15485 25.0346 8.64139 24.1269 8.64139 22.3873C8.64139 21.9276 8.5381 21.7768 8.35196 21.5029C8.10542 21.143 7.76796 20.6498 7.53086 19.3618C7.49594 19.1767 7.46615 19.1622 7.30105 19.082C6.8603 18.8693 6.45524 18.5633 6.34904 17.1675C6.34904 16.4915 6.58175 16.1178 6.77451 15.9233C6.73234 15.6829 6.66323 15.2683 6.59852 14.8167C6.26905 12.7936 6.25454 10.316 9.09524 9.16422C11.5709 8.15887 13.5469 8.70819 14.1672 9.36312C14.6065 9.37697 15.7396 9.49207 16.528 10.4107C17.7411 11.824 17.3549 15.0462 17.2225 15.9196C17.4159 16.1098 17.6509 16.4784 17.6509 17.1399C17.5447 18.5634 17.1396 18.8701 16.6981 19.082C16.5323 19.1622 16.5025 19.176 16.4683 19.3618C16.2312 20.6498 15.8945 21.143 15.648 21.5029C15.461 21.7761 15.3585 21.9276 15.3585 22.3873C15.3585 24.1269 15.8451 25.0346 18.8603 26.1529C18.9869 26.1995 19.0771 26.3124 19.0945 26.4465C19.112 26.5805 19.0538 26.7131 18.9447 26.791C16.8988 28.2495 14.4981 29.0203 11.9999 29.0203ZM6.04868 26.5805C7.8392 27.7024 9.88284 28.2918 11.9999 28.2918C14.117 28.2918 16.1607 27.7024 17.9512 26.5805C15.4246 25.5417 14.6312 24.4941 14.6312 22.388C14.6312 21.7025 14.8334 21.406 15.0479 21.092C15.269 20.7685 15.5439 20.3664 15.7541 19.2299C15.8552 18.6807 16.173 18.5277 16.3832 18.4264C16.6094 18.3178 16.8421 18.2056 16.9243 17.1129C16.9236 16.5563 16.6741 16.4048 16.6639 16.399C16.5301 16.3217 16.4436 16.1593 16.472 16.0078C16.6523 15.0396 16.949 12.0199 15.9767 10.8856C15.3127 10.112 14.2662 10.0909 14.0669 10.0989C14.0334 10.0959 14.0007 10.0952 13.9694 10.0872C13.8749 10.0632 13.7149 9.98081 13.6662 9.89632C13.4683 9.55685 11.7455 8.87425 9.36799 9.83805C7.01819 10.7909 7.01306 12.8336 7.31782 14.7059C7.41817 15.4031 7.528 16.0055 7.52872 16.0084C7.55856 16.1724 7.47345 16.3355 7.3229 16.4047C7.32508 16.4047 7.07636 16.557 7.07636 17.1391C7.1578 18.2034 7.39128 18.3163 7.61673 18.4249C7.82691 18.5261 8.14545 18.6791 8.24657 19.2284C8.45602 20.3649 8.73094 20.767 8.95204 21.0904C9.16729 21.4044 9.36948 21.701 9.36948 22.3865C9.3694 24.4948 8.57592 25.5424 6.04868 26.5805Z" fill="black"/>

   		</g>
	</symbol>
	<symbol id="advantage6" viewBox="0 0 24 22">
        <g>
        <path d="M23.9956 7.17905C23.956 6.5045 23.142 5.97739 21.514 5.57524C21.5688 5.45699 21.5996 5.33396 21.6 5.20624V2.44807H21.5932C21.45 0.150373 11.8972 0.0825806 10.8 0.0825806C9.70281 0.0825806 0.14998 0.150373 0.0068136 2.44807H0V2.49933V5.20743C0.00201586 5.95652 0.982811 6.54277 2.44201 6.97917C2.42201 7.04461 2.41 7.11125 2.40601 7.17905H2.4V7.23031V9.93368C0.827993 10.3326 0.0428168 10.8523 0.0039914 11.5158H0V11.567V14.2752C0.00120951 14.7967 0.478403 15.2391 1.25919 15.6077C1.22959 15.6877 1.21117 15.7694 1.20597 15.8529H1.19996V15.9042V18.6123C1.20314 19.9235 4.19875 20.7377 7.52717 21.1177C7.55157 21.1225 7.57398 21.1323 7.59999 21.1323C7.60757 21.1323 7.61398 21.1284 7.6216 21.128C8.2632 21.1994 8.91521 21.2549 9.56041 21.2948C9.57399 21.2964 9.58601 21.3026 9.6 21.3026C9.60758 21.3026 9.61359 21.2987 9.6208 21.2983C10.44 21.3472 11.246 21.372 12 21.372C12.754 21.372 13.56 21.3472 14.3792 21.2979C14.3864 21.2983 14.3928 21.3022 14.4 21.3022C14.414 21.3022 14.426 21.2955 14.4396 21.2944C15.0848 21.2545 15.7368 21.1994 16.3784 21.1276C16.386 21.1276 16.3924 21.1315 16.4 21.1315C16.426 21.1315 16.4484 21.1217 16.4728 21.1169C19.8012 20.7369 22.7964 19.9224 22.8 18.6107V15.8525H22.7936C22.7656 15.3692 22.3476 14.9659 21.522 14.6288C21.5724 14.5148 21.6 14.3966 21.6 14.274V11.6971C23.0361 11.2619 23.998 10.6796 24 9.93722V7.17905H23.9956ZM20.7568 14.4021L20.6204 14.5199C20.4104 14.7025 20.0604 14.8866 19.6 15.064V13.1842C20.0756 13.021 20.4804 12.84 20.8 12.6417V14.2731C20.8 14.3137 20.7848 14.3571 20.7568 14.4021ZM11.8104 16.2341C11.752 16.2357 11.6932 16.2365 11.6344 16.2377C11.4916 16.2404 11.3452 16.2412 11.2004 16.2424V14.2731C11.3104 14.2719 11.4204 14.2704 11.5304 14.2684C11.5516 14.268 11.5728 14.2676 11.594 14.2672C11.9968 14.2597 12.3996 14.2475 12.8004 14.2294V16.1978C12.7148 16.2022 12.6288 16.2061 12.542 16.2097C12.3012 16.2203 12.058 16.2282 11.8104 16.2341ZM10.0636 16.2397C9.8804 16.2365 9.69801 16.2321 9.51682 16.2267C9.49441 16.2259 9.47203 16.2251 9.44962 16.2243C9.23162 16.2172 9.0152 16.2081 8.80043 16.1978V14.2298C9.20122 14.2483 9.60403 14.2605 10.0068 14.2676C10.028 14.268 10.0493 14.2684 10.0701 14.2688C10.18 14.2708 10.2901 14.2723 10.4001 14.2735V16.244C10.3224 16.2432 10.2448 16.2432 10.1677 16.242C10.1324 16.2412 10.0984 16.24 10.0636 16.2397ZM2.83881 15.3408C2.82563 15.3368 2.81321 15.3332 2.80003 15.3297V13.4251C3.17365 13.5244 3.57524 13.6151 4.00003 13.6975V15.6219C3.63282 15.545 3.29403 15.4641 2.98561 15.3814C2.93678 15.3676 2.88639 15.3546 2.83881 15.3408ZM11.27 18.6055C11.38 18.6075 11.49 18.6091 11.6 18.6103V20.5811C11.0472 20.576 10.5136 20.5602 10 20.5354V18.5669C10.4008 18.5854 10.8036 18.5977 11.2064 18.6047C11.2276 18.6047 11.2488 18.6051 11.27 18.6055ZM12.7936 18.6043C13.1964 18.5968 13.5992 18.5846 14 18.5665V20.535C13.4864 20.5598 12.9528 20.5756 12.4 20.5807V18.6099C12.51 18.6087 12.62 18.6071 12.73 18.6051C12.7512 18.6051 12.7724 18.6047 12.7936 18.6043ZM16 18.4262V20.384C15.6156 20.4238 15.2156 20.4589 14.8 20.4877V18.5216C15.2056 18.4955 15.6064 18.4636 16 18.4262ZM16.8 18.341C17.2124 18.2921 17.6128 18.2365 18 18.1746V20.1104C17.6232 20.1758 17.2228 20.2362 16.8 20.291V18.341ZM18.8 18.0339C19.2248 17.9515 19.6264 17.8608 20 17.7614V19.666C19.6436 19.7674 19.2424 19.8655 18.8 19.9582V18.0339ZM5.19999 18.0339V19.9582C4.75759 19.8655 4.35639 19.7674 3.99999 19.666V17.7614C4.37361 17.8608 4.7752 17.9519 5.19999 18.0339ZM6 18.175C6.38721 18.2369 6.7876 18.2925 7.2 18.3414V20.2914C6.77719 20.2366 6.3768 20.1762 6 20.1108V18.175ZM8.00001 18.4262C8.39363 18.4636 8.79442 18.4955 9.20001 18.522V20.4881C8.78442 20.4593 8.3844 20.4242 8.00001 20.3844V18.4262ZM7.00761 16.0685C6.9668 16.0646 6.92641 16.0603 6.88601 16.0563C6.85722 16.0536 6.8288 16.05 6.80001 16.0472V14.0898C7.19363 14.1273 7.59442 14.1592 8.00001 14.1856V16.1502C7.66401 16.1265 7.332 16.0997 7.00761 16.0685ZM6 14.0043V15.9542C5.57719 15.8994 5.1768 15.8391 4.8 15.7737V13.8379C5.18721 13.8998 5.5876 13.9558 6 14.0043ZM13.8664 16.1316C13.7784 16.1384 13.6896 16.145 13.6 16.1514V14.1852C14.0056 14.1588 14.4064 14.1273 14.8 14.0894V16.0472C14.5528 16.0729 14.3 16.0969 14.0404 16.1178C13.9824 16.1229 13.9244 16.1273 13.8664 16.1316ZM15.6 15.9542V14.0043C16.0124 13.9554 16.4128 13.8998 16.8 13.8379V15.7737C16.4232 15.8391 16.0228 15.8998 15.6 15.9542ZM17.6 13.6971C18.0248 13.6147 18.4264 13.5241 18.8 13.4247V15.3293C18.4436 15.4306 18.0424 15.5288 17.6 15.6215V13.6971ZM12.13 11.8962C11.8292 11.8887 11.5352 11.8773 11.2464 11.8635C11.2308 11.8627 11.2152 11.8619 11.2 11.8615V9.89307C11.6008 9.91159 12.0036 9.92383 12.4064 9.9309C12.4276 9.9313 12.4488 9.93169 12.4696 9.93209C12.5796 9.93408 12.6896 9.93563 12.7996 9.93682V11.9053C12.6048 11.9033 12.4084 11.9026 12.2184 11.8982C12.1892 11.8974 12.1592 11.897 12.13 11.8962ZM2.79999 6.26202V4.35741C3.17361 4.45676 3.5752 4.54744 3.99999 4.62985V6.55418C3.9508 6.54392 3.9 6.53367 3.85198 6.52342C3.63919 6.47728 3.4316 6.4292 3.23319 6.37834C3.08201 6.34007 2.9384 6.30105 2.79999 6.26202ZM10.07 5.20112C10.18 5.2031 10.29 5.20465 10.4 5.20585V7.17432C9.86162 7.16919 9.32641 7.1554 8.80003 7.12937V5.16245C9.20082 5.18097 9.60363 5.19321 10.0064 5.20028C10.0276 5.20032 10.0488 5.20072 10.07 5.20112ZM11.5936 5.19992C11.9964 5.19241 12.3992 5.18021 12.8 5.16209V7.12902C12.732 7.13216 12.6668 7.13688 12.5984 7.14006C12.5928 7.14046 12.5872 7.14046 12.5812 7.14086C12.3128 7.1527 12.0392 7.16136 11.762 7.16768C11.7188 7.16887 11.6756 7.16927 11.6324 7.17042C11.49 7.17316 11.3444 7.17356 11.2 7.17515V5.20588C11.31 5.20469 11.42 5.20314 11.53 5.20116C11.5512 5.20072 11.5724 5.20032 11.5936 5.19992ZM20.7084 5.39782L20.6972 5.39543L20.5516 5.50701C20.3404 5.66906 20.016 5.83306 19.6 5.99153V4.11609C20.0756 3.95288 20.4804 3.77192 20.8 3.57359V5.20497C20.8 5.26497 20.768 5.32963 20.7084 5.39782ZM15.6 6.88415V4.93654C16.0124 4.88767 16.4128 4.83207 16.8 4.77016V6.70275C16.4208 6.76903 16.0216 6.82975 15.6 6.88415ZM17.6 6.551V4.62981C18.0248 4.5474 18.4264 4.45675 18.8 4.35737V6.25765C18.4416 6.36057 18.038 6.45877 17.6 6.551ZM14.8 5.0217V6.97718C14.4136 7.01739 14.0136 7.05248 13.6 7.08165V5.11751C14.0056 5.09112 14.4064 5.05917 14.8 5.0217ZM6.80001 6.97797V5.0217C7.19363 5.05917 7.59442 5.09108 8.00001 5.11751V7.08006C7.59281 7.05133 7.19121 7.01859 6.80001 6.97797ZM6 4.93654V6.88451C5.92082 6.87426 5.83841 6.86599 5.75999 6.85534C5.70879 6.84823 5.66 6.84076 5.60961 6.83365C5.37839 6.80094 5.15241 6.76586 4.93083 6.72918C4.88644 6.72167 4.84362 6.7138 4.80004 6.70633V4.77056C5.18721 4.83208 5.5876 4.88806 6 4.93654ZM10.3008 11.8071C10.2468 11.8032 10.1924 11.7993 10.1388 11.7953C9.88278 11.7756 9.63282 11.7539 9.38882 11.7299C9.33641 11.7247 9.28403 11.7192 9.23203 11.7141C9.22122 11.7129 9.21082 11.7113 9.20001 11.7105V9.75272C9.59363 9.79019 9.99442 9.8221 10.4 9.84853V11.8135C10.3676 11.8111 10.3332 11.8095 10.3008 11.8071ZM7.658 11.5126C7.4996 11.4878 7.35079 11.4609 7.2 11.435V9.50158C7.58721 9.56349 7.9876 9.61908 8.4 9.66796V11.6179C8.15519 11.586 7.91559 11.5529 7.68562 11.5174C7.67639 11.5154 7.66719 11.5138 7.658 11.5126ZM6.39999 9.36043V11.2816C5.95799 11.1882 5.5572 11.0888 5.19999 10.9855V9.08803C5.57361 9.18733 5.9752 9.27841 6.39999 9.36043ZM4.40001 8.8471V10.7202C3.77123 10.4809 3.3656 10.2364 3.2336 10.0188L3.20679 9.97465C3.20437 9.96241 3.20038 9.94942 3.19997 9.93718V8.30461C3.51961 8.50294 3.92439 8.6839 4.40001 8.8471ZM13.9936 9.9309C14.3964 9.92339 14.7992 9.91119 15.2 9.89307V11.8596C14.6744 11.8852 14.14 11.8994 13.6 11.9049V9.93686C13.71 9.93567 13.82 9.93412 13.93 9.93213C13.9512 9.9317 13.9724 9.9313 13.9936 9.9309ZM19.1628 11.4436C18.9872 11.4736 18.81 11.5032 18.628 11.5304C18.5236 11.5461 18.4168 11.5611 18.3096 11.5761C18.2084 11.5903 18.1032 11.6025 18.0004 11.6155V9.66756C18.4128 9.61868 18.8132 9.56309 19.2004 9.50118V11.4369C19.1876 11.4393 19.1752 11.4416 19.1628 11.4436ZM16.4544 11.7803C16.3052 11.7926 16.1512 11.8004 16 11.8111V9.84848C16.4056 9.82206 16.8064 9.79055 17.2 9.75268V11.7086C16.9676 11.7326 16.7356 11.7566 16.4968 11.7763C16.4824 11.7775 16.4688 11.7791 16.4544 11.7803ZM21.0256 11.0411C20.8264 11.0959 20.6156 11.1471 20.4004 11.1972C20.3008 11.2201 20.1992 11.243 20.0952 11.265C20.0644 11.2717 20.0316 11.2776 20.0004 11.2843V9.36079C20.4252 9.27837 20.8268 9.18773 21.2004 9.08835V10.993C21.1428 11.0088 21.0848 11.025 21.0256 11.0411ZM23.1956 7.20468C23.1588 7.47239 22.5432 7.82839 21.4444 8.1631C20.0292 8.59402 17.8148 8.98865 15.0084 9.11088C14.8648 9.1168 14.7216 9.12272 14.5752 9.12745C14.4556 9.13138 14.3356 9.13496 14.2136 9.1381C13.8824 9.14521 13.5464 9.15034 13.2 9.15034C12.8536 9.15034 12.5176 9.14521 12.1863 9.13774C12.0647 9.135 11.9448 9.13103 11.8247 9.12709C11.6779 9.12276 11.5347 9.11644 11.3915 9.11052C8.58514 8.98829 6.37031 8.59366 4.95554 8.16274C3.86553 7.83078 3.25114 7.47755 3.20554 7.21103C3.20755 7.20352 3.20755 7.19724 3.21235 7.18779C3.23956 7.1945 3.26996 7.20003 3.29754 7.2067C3.45393 7.24338 3.61435 7.27887 3.77756 7.31276C4.57237 7.48149 5.45314 7.61989 6.39156 7.72555C6.39474 7.72555 6.39716 7.72714 6.39995 7.72714C6.40075 7.72714 6.40156 7.72675 6.40196 7.72675C7.04115 7.79851 7.70437 7.85486 8.38516 7.89468C8.39036 7.89468 8.39476 7.89742 8.39996 7.89742C8.40274 7.89742 8.40476 7.89583 8.40754 7.89583C8.89755 7.9242 9.39394 7.9451 9.89633 7.95615C10.204 7.96362 10.5059 7.9676 10.7999 7.9676C11.0099 7.9676 11.2251 7.96521 11.4423 7.96128C14.3487 7.91713 17.0423 7.5765 18.9167 7.04859C19.0031 7.02455 19.0875 6.99971 19.1707 6.97488C19.2215 6.9595 19.2735 6.94452 19.3227 6.92914C19.4675 6.8834 19.6063 6.83647 19.7403 6.78759C19.7635 6.77893 19.7855 6.77023 19.8087 6.76156C19.922 6.71936 20.0307 6.67561 20.1348 6.63107C20.1647 6.61807 20.1956 6.60544 20.2247 6.59244C20.3355 6.54317 20.4427 6.4927 20.542 6.44025C20.5867 6.417 20.6256 6.39292 20.6675 6.36928C20.7156 6.34206 20.7635 6.31448 20.8079 6.2865C20.8331 6.27073 20.8631 6.25575 20.8871 6.23997C22.678 6.62276 23.15 7.04144 23.1956 7.20468ZM10.8 0.87109C17.3956 0.87109 20.7316 1.89457 20.794 2.482C20.7456 2.74852 20.1316 3.1006 19.0444 3.43173C17.6292 3.86264 15.4148 4.25727 12.6084 4.37951C12.4648 4.38543 12.3216 4.39135 12.1752 4.39608C12.0556 4.40001 11.9356 4.40359 11.8136 4.40673C11.4824 4.41424 11.1464 4.41932 10.8 4.41932C10.4536 4.41932 10.1176 4.4142 9.78639 4.40673C9.66479 4.40398 9.54481 4.40001 9.42478 4.39608C9.27799 4.39174 9.13478 4.38543 8.99157 4.37951C6.18518 4.25727 3.97035 3.86264 2.55558 3.43173C1.46799 3.10056 0.854401 2.74848 0.80598 2.482C0.868391 1.89453 4.20439 0.87109 10.8 0.87109ZM0.800013 5.20624V3.57367C1.11961 3.77196 1.52443 3.95292 2.00001 4.11617V6.00381C1.22201 5.71639 0.80082 5.42818 0.800013 5.20624ZM2.73762 10.6622C2.74362 10.6685 2.75282 10.6741 2.75882 10.6803C3.30641 11.2252 4.44041 11.6534 5.85204 11.9727C5.88445 11.9802 5.91884 11.9873 5.95162 11.9948C6.05523 12.0176 6.16042 12.0401 6.26682 12.0618C7.56322 12.3339 9.11083 12.5306 10.7968 12.628C10.798 12.628 10.7988 12.6284 10.7996 12.6284C10.8004 12.6284 10.8008 12.628 10.8012 12.628C11.3428 12.6591 11.8968 12.6808 12.4624 12.6903C12.7128 12.6954 12.9592 12.6985 13.2 12.6985C13.476 12.6985 13.7592 12.6954 14.0472 12.6887C14.5704 12.678 15.086 12.6567 15.5944 12.6276C15.5964 12.6276 15.598 12.6288 15.6 12.6288C15.6036 12.6288 15.6064 12.6268 15.61 12.6268C17.3004 12.5286 18.8864 12.3299 20.2276 12.0441C19.9372 12.1939 19.5396 12.3488 19.0444 12.4998C17.5504 12.9548 15.1644 13.3691 12.132 13.4653C12.042 13.468 11.9532 13.4712 11.862 13.4736C11.764 13.476 11.6644 13.4775 11.5648 13.4795C11.3132 13.4834 11.06 13.487 10.8 13.487C10.4536 13.487 10.1176 13.4819 9.78635 13.4744C9.66475 13.4717 9.54476 13.4677 9.42474 13.4638C9.27795 13.4594 9.13474 13.4531 8.99153 13.4472C6.18514 13.325 3.97031 12.9303 2.55554 12.4994C1.45553 12.1643 0.839927 11.8079 0.804327 11.5402C0.848797 11.392 1.25322 11.021 2.73762 10.6622ZM0.800013 14.2739V12.6413C1.11961 12.8396 1.52443 13.0206 2.00001 13.1838V15.064L1.77162 14.9765L1.76682 14.9812C1.1388 14.7245 0.80082 14.4726 0.800013 14.2739ZM2.00001 18.6107V16.9781C2.31961 17.1764 2.72443 17.3573 3.20001 17.5206V19.4082C2.42201 19.1208 2.00082 18.8326 2.00001 18.6107ZM20.8 19.4082V17.521C21.2756 17.3578 21.6804 17.1768 22 16.9785V18.6099C21.9996 18.8318 21.578 19.1204 20.8 19.4082ZM21.9948 15.8828C21.9512 16.1498 21.3368 16.5038 20.2444 16.8365C18.8292 17.2675 16.6148 17.6621 13.8084 17.7843C13.6648 17.7902 13.5216 17.7962 13.3752 17.8009C13.2556 17.8048 13.1356 17.8084 13.0136 17.8115C12.6824 17.8187 12.3464 17.8238 12 17.8238C11.6536 17.8238 11.3171 17.8187 10.9856 17.8111C10.8652 17.8084 10.7464 17.8044 10.6276 17.8005C10.48 17.7958 10.3359 17.7898 10.1916 17.7839C7.38518 17.6617 5.17076 17.2671 3.75558 16.8362C2.69758 16.514 2.08637 16.1719 2.00957 15.9077C2.12879 15.9487 2.25236 15.9885 2.37916 16.0275C2.39194 16.0315 2.40476 16.0354 2.41754 16.039C2.52555 16.0717 2.63594 16.1032 2.74915 16.134C2.79196 16.1458 2.83514 16.1576 2.87877 16.1691C2.94275 16.186 3.00839 16.2022 3.07398 16.2187C4.53076 16.5866 6.39039 16.8472 8.39798 16.9643C8.39879 16.9643 8.39919 16.9647 8.4 16.9647C8.4004 16.9647 8.40081 16.9643 8.40121 16.9643C9.02121 17.0005 9.65443 17.023 10.2944 17.0305C10.4648 17.0336 10.634 17.0352 10.8 17.0352C11.0205 17.0352 11.246 17.0325 11.4744 17.0285C12.058 17.0191 12.634 16.9978 13.1972 16.9647C13.1984 16.9647 13.1992 16.9655 13.2004 16.9655C13.2024 16.9655 13.2036 16.9643 13.2056 16.9643C13.8916 16.9237 14.5556 16.8657 15.1936 16.7936C15.196 16.7936 15.198 16.7947 15.2004 16.7947C15.2092 16.7947 15.2164 16.7904 15.2252 16.7896C15.9356 16.7088 16.6092 16.6094 17.2344 16.4939C17.3632 16.4707 17.49 16.4466 17.6156 16.4218C17.6436 16.4162 17.6716 16.4107 17.6996 16.4048C18.8808 16.1659 19.9032 15.8564 20.6048 15.4728C20.6432 15.4523 20.6792 15.431 20.7156 15.4101C20.76 15.3841 20.8024 15.3577 20.8436 15.3309C20.882 15.3065 20.9264 15.2828 20.9616 15.258C21.7512 15.5355 21.9688 15.7839 21.9948 15.8828ZM22 10.7348V8.8475C22.4756 8.6843 22.8804 8.50333 23.2 8.30501V9.93638C23.1996 10.1584 22.778 10.447 22 10.7348Z" fill="black"/>
   		</g>
	</symbol>
</svg>	

 