<svg width="20" height="20" viewBox="0 0 20 20" fill="none" xmlns="http://www.w3.org/2000/svg">
<path d="M10 20C15.5228 20 20 15.5228 20 10C20 4.47715 15.5228 0 10 0C4.47715 0 0 4.47715 0 10C0 15.5228 4.47715 20 10 20Z" fill="white"/>
<path d="M4.57587 9.78326L14.2175 6.06576C14.665 5.9041 15.0559 6.17493 14.9109 6.8516L14.9117 6.85076L13.27 14.5849C13.1484 15.1333 12.8225 15.2666 12.3667 15.0083L9.8667 13.1658L8.66087 14.3274C8.52753 14.4608 8.41504 14.5733 8.1567 14.5733L8.3342 12.0291L12.9675 7.84326C13.1692 7.66576 12.9225 7.56576 12.6567 7.74243L6.93087 11.3474L4.46254 10.5774C3.9267 10.4074 3.91504 10.0416 4.57587 9.78326Z" fill="#039BE5"/>
</svg>
