<svg width="30" height="30" viewBox="0 0 30 30" fill="none" xmlns="http://www.w3.org/2000/svg">
<path d="M9.84187 20.5359C11.0774 22.2779 12.3109 23.8359 13.1284 24.8394C13.2474 24.9854 13.3589 25.1208 13.4669 25.2513H10.9999C10.7238 25.2513 10.4999 25.4752 10.4999 25.7513C10.4999 26.0275 10.7238 26.2513 10.9999 26.2513H18.9999C19.276 26.2513 19.4999 26.0275 19.4999 25.7513C19.4999 25.4752 19.276 25.2513 18.9999 25.2513H16.5329C16.6409 25.1208 16.7524 24.9853 16.8719 24.8394C17.6889 23.8393 18.9219 22.2779 20.1579 20.5359C21.3842 18.8422 22.488 17.0632 23.4609 15.2124C24.4819 13.2073 25 11.5429 25 10.2649C25.0034 7.60933 23.9496 5.06166 22.0714 3.18431C21.946 3.05423 21.7601 3.00197 21.5853 3.04761C21.4104 3.09325 21.2738 3.22966 21.2279 3.40445C21.182 3.57923 21.234 3.76515 21.3639 3.89078C23.0545 5.58086 24.0029 7.87429 23.9999 10.2648C23.9999 11.3838 23.5189 12.8958 22.57 14.7583C21.619 16.5662 20.5403 18.304 19.342 19.9584C18.123 21.6779 16.9044 23.2184 16.097 24.2084C15.8285 24.5374 15.587 24.8283 15.3809 25.0744C15.2848 25.1842 15.1459 25.2471 15 25.2471C14.854 25.2471 14.7151 25.1841 14.619 25.0744C14.413 24.8284 14.1715 24.5374 13.903 24.2084C13.0955 23.2189 11.877 21.6783 10.658 19.9584C9.45966 18.304 8.38089 16.5662 7.42997 14.7583C6.47998 12.8958 5.99998 11.3838 5.99998 10.2648C5.99969 6.64317 8.16556 3.37257 11.5 1.95929C13.7405 1.01979 16.2645 1.01979 18.5051 1.95929C18.6696 2.02901 18.8588 2.00575 19.0015 1.89811C19.1441 1.79053 19.2186 1.61499 19.1967 1.43762C19.1748 1.26026 19.0601 1.10803 18.8955 1.03831C13.8038 -1.10928 7.93517 1.27631 5.786 6.36731C5.2648 7.60048 4.9975 8.92605 5.00002 10.2648C5.00002 11.5428 5.51805 13.2073 6.53905 15.2148C7.51182 17.0648 8.61568 18.843 9.84187 20.5359Z" fill="#8E8E8E"/>
<path d="M15.0006 5.75094C15.2768 5.75094 15.5006 5.52711 15.5006 5.25096C15.5006 4.97481 15.2768 4.75098 15.0006 4.75098C12.6152 4.75092 10.562 6.43596 10.0966 8.7755C9.63116 11.115 10.8833 13.4575 13.087 14.3704C15.2908 15.2833 17.8326 14.5123 19.1579 12.5289C20.4831 10.5456 20.2228 7.90222 18.5361 6.21547C18.4105 6.08551 18.2247 6.03336 18.0498 6.07913C17.8751 6.12489 17.7385 6.26141 17.6928 6.4362C17.647 6.61104 17.6992 6.7969 17.8291 6.92247C19.1785 8.27183 19.3868 10.3864 18.3267 11.9732C17.2666 13.5599 15.2332 14.1768 13.4701 13.4466C11.7071 12.7164 10.7054 10.8424 11.0776 8.97074C11.4498 7.09907 13.0923 5.751 15.0006 5.75094Z" fill="#8E8E8E"/>
<path d="M29.8117 27.5365L26.7367 22.0365C26.4587 21.5478 25.9384 21.2475 25.3762 21.251H21.8127C21.5366 21.251 21.3128 21.4748 21.3128 21.751C21.3128 22.0271 21.5366 22.251 21.8127 22.251H25.3762C25.5764 22.2471 25.7631 22.3515 25.8647 22.524L28.9388 28.024C29.0225 28.1671 29.0207 28.3446 28.9342 28.486C28.8321 28.6548 28.6474 28.7558 28.4503 28.751H1.5502C1.35321 28.7557 1.16875 28.6546 1.06668 28.486C0.980197 28.3446 0.978498 28.1671 1.06217 28.024L4.13618 22.524C4.23761 22.3515 4.42417 22.2472 4.62415 22.251H8.18766C8.46381 22.251 8.68764 22.0271 8.68764 21.751C8.68764 21.4748 8.46381 21.251 8.18766 21.251H4.62421C4.06171 21.2473 3.54104 21.5477 3.26272 22.0365L0.188184 27.5365C-0.0681648 27.9894 -0.0622468 28.5448 0.203711 28.9921C0.483907 29.4683 0.997717 29.758 1.5502 29.7511H28.4503C29.0026 29.7578 29.5162 29.4682 29.7963 28.9921C30.0622 28.5448 30.0681 27.9894 29.8117 27.5365Z" fill="#8E8E8E"/>
<path d="M24.504 23.751H22.504C22.4053 23.7512 22.3088 23.7803 22.2265 23.835L20.7265 24.835C20.4968 24.9883 20.4348 25.2988 20.588 25.5286C20.7413 25.7583 21.0518 25.8203 21.2815 25.6671L22.654 24.7511H24.504C24.7802 24.7511 25.004 24.5272 25.004 24.2511C25.004 23.9748 24.7802 23.751 24.504 23.751Z" fill="#8E8E8E"/>
<path d="M21.5 27.251C21.5 27.5271 21.7238 27.7509 22 27.7509H26C26.2762 27.7509 26.5 27.5271 26.5 27.251C26.5 26.9748 26.2762 26.751 26 26.751H22C21.7238 26.751 21.5 26.9748 21.5 27.251Z" fill="#8E8E8E"/>
<path d="M8.99998 25.751C9.22041 25.7513 9.415 25.6072 9.47904 25.3962C9.54308 25.1853 9.4614 24.9573 9.27801 24.835L7.778 23.835C7.69562 23.7803 7.59888 23.751 7.49997 23.751H5.49998C5.22383 23.751 5 23.9749 5 24.251C5 24.5271 5.22389 24.7509 5.49998 24.7509H7.34997L8.724 25.667C8.80574 25.7216 8.90177 25.7508 8.99998 25.751Z" fill="#8E8E8E"/>
<path d="M3.99608 26.751C3.71992 26.751 3.49609 26.9748 3.49609 27.251C3.49609 27.5271 3.71992 27.7509 3.99608 27.7509H7.99611C8.27226 27.7509 8.49609 27.5271 8.49609 27.251C8.49609 26.9748 8.27226 26.751 7.99611 26.751H3.99608Z" fill="#8E8E8E"/>
</svg>
