<svg width="24" height="24" viewBox="0 0 24 24" fill="none" xmlns="http://www.w3.org/2000/svg">
<path d="M0.534403 7.51491C0.677315 8.04147 1.15752 8.40534 1.70311 8.40046C1.78176 8.40051 1.86027 8.39301 1.93751 8.37806L4.36135 7.91328L6.22601 7.50409C6.83975 7.39375 7.26188 6.82519 7.18993 6.20578L6.96237 4.4607C6.93396 4.24349 7.43193 4.00271 7.89629 3.93273C10.5882 3.4972 13.332 3.49007 16.0261 3.91154C16.7665 4.03913 16.93 4.15795 16.9652 4.20234C17.0396 4.38603 17.0505 4.58931 16.996 4.77989L16.8328 5.93983C16.7411 6.31485 16.8062 6.71106 17.0132 7.03696C17.3031 7.34327 17.6948 7.53338 18.1148 7.57172C18.3947 7.6253 18.6104 7.67929 18.8259 7.7317C19.0547 7.78851 19.2831 7.84527 19.5807 7.90208L21.7489 8.32045C22.126 8.43163 22.53 8.40815 22.8916 8.25404C23.2723 8.00876 23.5188 7.60186 23.56 7.15091L23.5732 7.09293C23.6152 6.90816 23.6708 6.72494 23.7264 6.54176C23.8847 6.10234 23.97 5.63999 23.9792 5.17305C23.9146 4.35017 23.5353 3.58386 22.92 3.03359C20.1506 0.315393 15.3605 0.000976562 12.0008 0.000976562C4.33056 0.00102343 1.40795 2.20888 0.306793 4.06116C0.00437587 4.57356 -0.0786811 5.18623 0.076418 5.76064L0.534403 7.51491ZM0.993982 4.47073C1.98912 2.79604 4.70652 0.800986 12.0009 0.800986C15.2218 0.800986 19.8003 1.09178 22.3602 3.60439C22.8255 4.01101 23.1179 4.58003 23.1777 5.19508C23.1637 5.57601 23.0898 5.95235 22.9585 6.31021C22.8981 6.51021 22.8385 6.71219 22.7913 6.91495L22.7773 6.97575C22.7105 7.27334 22.6573 7.47371 22.5201 7.54529C22.3164 7.60078 22.101 7.59689 21.8994 7.53408L19.7327 7.12053C19.4527 7.06696 19.2363 7.01296 19.0208 6.96056C18.792 6.90375 18.5636 6.84699 18.2668 6.79018C18.0753 6.75339 17.7541 6.69217 17.6521 6.55742C17.5878 6.39749 17.5788 6.22069 17.6265 6.05504L17.7901 4.8951C17.8855 4.50504 17.8253 4.09313 17.6221 3.74679C17.3637 3.3788 16.7681 3.23162 16.1637 3.12724C13.385 2.69119 10.5547 2.69738 7.77789 3.14566C6.90274 3.27845 6.06641 3.76962 6.17042 4.56836L6.3984 6.31303C6.4149 6.51664 6.26927 6.69761 6.06683 6.72498L4.20138 7.13014L1.78715 7.59253C1.57847 7.63964 1.36891 7.5174 1.30718 7.31257L0.850788 5.56068C0.74992 5.19288 0.801526 4.79995 0.993982 4.47073Z" fill="#8E8E8E"/>
<path d="M23.9264 18.2604C23.9224 18.25 23.9184 18.24 23.914 18.2308C23.8766 18.1314 23.8265 18.0373 23.7648 17.9509L18.6807 11.0513C18.3784 10.6428 17.9007 10.4015 17.3924 10.4005H16.3525L15.9989 7.57154C15.9832 7.14117 15.6296 6.8005 15.199 6.80078H13.999C13.5572 6.80078 13.1991 7.15893 13.1991 7.60074V10.8005C13.1991 11.0215 13.3781 11.2005 13.599 11.2005C13.8199 11.2005 13.999 11.0215 13.999 10.8005V7.60074H15.1989C15.1988 7.61734 15.1999 7.63393 15.2021 7.65033L15.6021 10.8501C15.6271 11.0503 15.7971 11.2005 15.9988 11.2005H17.3923C17.6463 11.2009 17.8852 11.3215 18.0363 11.5257L22.8068 18.0001H19.5986C19.3777 18.0001 19.1986 18.1792 19.1986 18.4C19.1986 18.6209 19.3777 18.8 19.5986 18.8H23.1983V21.9998C23.1983 22.6625 22.6611 23.1997 21.9984 23.1997H1.99988C1.33721 23.1997 0.799962 22.6625 0.799962 21.9998V18.8H17.5988C17.8198 18.8 17.9988 18.6209 17.9988 18.4C17.9988 18.1791 17.8198 18.0001 17.5988 18.0001H1.19153L5.96201 11.5257C6.11312 11.3215 6.35194 11.2009 6.60598 11.2005H7.99948C8.20117 11.2005 8.37127 11.0502 8.39625 10.8501L8.79621 7.65033C8.79846 7.63388 8.79954 7.61734 8.7994 7.60074H9.99932V10.8005C9.99932 11.0215 10.1784 11.2005 10.3993 11.2005H11.9992C12.2201 11.2005 12.3991 11.0215 12.3991 10.8005C12.3991 10.5796 12.2201 10.4006 11.9992 10.4006H10.7992V7.60079C10.7992 7.15898 10.4411 6.80083 9.99927 6.80083H8.79935C8.36869 6.80055 8.01514 7.14121 7.99939 7.57159L7.64621 10.4006H6.60626C6.09864 10.402 5.62153 10.6433 5.31954 11.0514L0.233609 17.9512C0.171598 18.0375 0.121445 18.1316 0.0844163 18.2312C0.0800103 18.24 0.0760262 18.25 0.0719952 18.26C0.0251702 18.3892 0.000843694 18.5254 0 18.6627V21.9997C0.00131241 23.1037 0.895909 23.9983 1.99988 23.9996H21.9986C23.1025 23.9983 23.9971 23.1037 23.9985 21.9997V18.6627C23.9976 18.5256 23.9733 18.3894 23.9264 18.2604Z" fill="#8E8E8E"/>
<path d="M9.36214 13.3946C9.7305 13.198 10.124 13.0526 10.5316 12.9622C11.4973 12.7467 12.4986 12.7467 13.4642 12.9622C13.6037 12.9954 13.7502 12.9513 13.8483 12.8468C13.9464 12.7423 13.981 12.5933 13.9391 12.4562C13.8972 12.3191 13.7852 12.2149 13.6454 12.1831C12.5605 11.9403 11.4353 11.9403 10.3504 12.1831C9.87149 12.29 9.40938 12.4617 8.9769 12.6935C8.59775 12.8919 8.2636 13.1664 7.99535 13.4998C7.46509 14.1372 7.46509 15.0622 7.99535 15.6996C8.2636 16.033 8.59775 16.3076 8.9769 16.506C9.40943 16.7377 9.87149 16.9094 10.3504 17.0164C11.4351 17.2606 12.5606 17.2606 13.6454 17.0164C14.1243 16.9095 14.5864 16.7378 15.0189 16.506C15.398 16.3075 15.7322 16.033 16.0004 15.6996C16.5307 15.0622 16.5307 14.1372 16.0004 13.4998C15.9145 13.383 15.7722 13.3219 15.6284 13.34C15.4846 13.358 15.3618 13.4525 15.3075 13.5868C15.2531 13.7211 15.2757 13.8744 15.3664 13.9874C15.6746 14.3375 15.6746 14.862 15.3664 15.2121C15.1646 15.457 14.9153 15.6586 14.6337 15.8048C14.2653 16.0014 13.8718 16.1469 13.4642 16.2372C12.4985 16.4528 11.4972 16.4528 10.5316 16.2372C10.124 16.147 9.73069 16.0015 9.36247 15.8048C9.08062 15.6587 8.83122 15.4571 8.62929 15.2121C8.32111 14.862 8.32111 14.3375 8.62929 13.9874C8.83122 13.7425 9.08044 13.5409 9.36214 13.3946Z" fill="#8E8E8E"/>
</svg>
