<svg width="30" height="30" viewBox="0 0 30 30" fill="none" xmlns="http://www.w3.org/2000/svg">
<path d="M29.7878 5.89696C28.6988 4.51245 24.7788 0 19.9988 0C15.2184 0 11.2989 4.51398 10.2099 5.89696C9.93003 6.2501 9.93003 6.74932 10.2099 7.10246C11.2989 8.48597 15.2183 12.9999 19.9988 12.9999C24.7794 12.9999 28.6988 8.48597 29.7878 7.10299C30.0679 6.74973 30.0679 6.25016 29.7878 5.89696ZM19.9988 11.9999C15.6694 11.9999 12.0129 7.77845 10.9954 6.51547C12.0129 5.22149 15.6694 1.00001 19.9988 1.00001C24.3113 1.00001 27.9558 5.18798 28.9898 6.5C27.9558 7.81197 24.3113 11.9999 19.9988 11.9999Z" fill="#8E8E8E"/>
<path d="M24 5.99994C23.7238 5.99994 23.5 6.22376 23.5 6.49991C23.5 8.43291 21.933 9.99988 20 9.99988C18.0671 9.99988 16.5001 8.43285 16.5001 6.49991C16.5001 4.56698 18.067 2.99996 20 2.99996C20.2761 2.99996 20.5 2.77613 20.5 2.49998C20.5 2.22383 20.2761 2 20 2C17.5147 2 15.5 4.01473 15.5 6.49997C15.5 8.98521 17.5147 10.9999 20 10.9999C22.4852 10.9999 24.4999 8.98521 24.4999 6.49997C24.4999 6.36738 24.4473 6.24017 24.3535 6.14642C24.2597 6.05261 24.1326 5.99994 24 5.99994Z" fill="#8E8E8E"/>
<path d="M17.5 6.50006C17.5 6.77621 17.7238 7.00004 18 7.00004C18.2761 7.00004 18.5 6.77621 18.5 6.50006C18.5 5.67167 19.1716 5.00007 19.9999 5.00007C20.8283 5.00007 21.4999 5.67167 21.4999 6.50006C21.4999 7.32846 20.8283 8.00005 19.9999 8.00005C19.7238 8.00005 19.5 8.22388 19.5 8.50003C19.5 8.77618 19.7239 9.00001 19.9999 9.00001C21.3806 9.00001 22.5 7.8807 22.5 6.5C22.5 5.11931 21.3807 4 19.9999 4C18.6193 4.00012 17.5 5.11937 17.5 6.50006Z" fill="#8E8E8E"/>
<path d="M24.0002 13.4999C23.724 13.4999 23.5002 13.7237 23.5002 13.9999V25.9998C23.5002 26.276 23.2763 26.4998 23.0002 26.4998H6.5003C6.43421 26.4998 6.36882 26.5129 6.30782 26.5383L1.40783 28.5803L2.96583 24.6853C2.98898 24.6262 3.0007 24.5632 3.00034 24.4998V12.9999C3.00034 12.7238 3.22417 12.5 3.50032 12.5H13.0002C13.2764 12.5 13.5002 12.2761 13.5002 12C13.5002 11.7239 13.2764 11.5 13.0002 11.5H3.50026C2.67187 11.5 2.00027 12.1716 2.00027 13V24.4039L0.0357517 29.3144C-0.0390135 29.5013 0.00569333 29.715 0.149189 29.8562C0.292684 29.9976 0.50696 30.039 0.69276 29.9614L6.60021 27.4998H23.0001C23.8285 27.4998 24.5001 26.8282 24.5001 25.9998V13.9999C24.5001 13.7238 24.2763 13.4999 24.0002 13.4999Z" fill="#8E8E8E"/>
<path d="M5.99999 17.5C5.1716 17.5 4.5 18.1716 4.5 19V20C4.5 20.8284 5.1716 21.5 5.99999 21.5H7.99996C8.82835 21.5 9.49995 20.8284 9.49995 20V19C9.49995 18.1716 8.82835 17.5 7.99996 17.5H5.99999ZM8.49994 19V20C8.49994 20.2762 8.27611 20.5 7.99996 20.5H5.99999C5.72384 20.5 5.50001 20.2762 5.50001 20V19C5.50001 18.7238 5.72384 18.5 5.99999 18.5H7.99996C8.27611 18.5 8.49994 18.7238 8.49994 19Z" fill="#8E8E8E"/>
<path d="M11 19V20C11 20.8284 11.6715 21.5 12.5 21.5H14.5C15.3284 21.5 16 20.8284 16 20V19C16 18.1716 15.3284 17.5 14.5 17.5H12.5C11.6715 17.5 11 18.1715 11 19ZM15 19V20C15 20.2762 14.7761 20.5 14.5 20.5H12.5C12.2239 20.5 12.0001 20.2762 12.0001 20V19C12.0001 18.7238 12.224 18.5 12.5 18.5H14.5C14.7761 18.5 15 18.7238 15 19Z" fill="#8E8E8E"/>
<path d="M21 21.5C21.8284 21.5 22.5 20.8284 22.5 20V19C22.5 18.1716 21.8284 17.5 21 17.5H19C18.1716 17.5 17.5 18.1716 17.5 19V20C17.5 20.8284 18.1716 21.5 19 21.5H21ZM18.5 20V19C18.5 18.7238 18.7238 18.5 18.9999 18.5H20.9999C21.2761 18.5 21.4999 18.7238 21.4999 19V20C21.4999 20.2762 21.2761 20.5 20.9999 20.5H18.9999C18.7238 20.5 18.5 20.2762 18.5 20Z" fill="#8E8E8E"/>
</svg>
