<svg width="30" height="30" viewBox="0 0 30 30" fill="none" xmlns="http://www.w3.org/2000/svg">
<path d="M29.9407 12.2385C29.2924 5.29998 23.4668 -0.00325437 16.498 0.00113989C9.99758 -0.0307332 4.41106 4.60557 3.2443 11.0005C3.11487 11.0292 2.99072 11.078 2.87629 11.145L1.29893 12.0929C0.761302 12.4098 0.367107 12.9224 0.199012 13.5233C-0.38648 15.6447 0.0395288 19.2925 5.3727 24.6257C9.60543 28.8584 12.7767 29.9993 14.9656 29.9993C15.4754 30.0017 15.983 29.9352 16.475 29.8018C17.0762 29.634 17.5888 29.2397 17.9054 28.7019L18.8554 27.1225C18.9217 27.0079 18.9697 26.8838 18.9979 26.7545C25.8468 25.4678 30.5891 19.1771 29.9407 12.2385ZM17.9954 26.6075L17.048 28.187C16.8629 28.5035 16.5627 28.7364 16.21 28.8369C13.5727 29.5594 9.97537 27.8134 6.07912 23.9172C2.18288 20.0209 0.436478 16.4251 1.15995 13.7883C1.26037 13.4356 1.49321 13.1353 1.80989 12.9503L3.39077 12.0004C3.52254 11.9213 3.69327 11.9599 3.77823 12.0879L6.2986 15.8671C6.38168 15.9924 6.3545 16.1605 6.23609 16.2531L4.82166 17.353C4.31796 17.7394 4.17442 18.4371 4.48471 18.9909L4.59621 19.1954C5.30644 20.4987 6.22824 21.675 7.32405 22.6762C8.32536 23.7726 9.5022 24.6946 10.8064 25.4045L11.0094 25.5155C11.563 25.8269 12.2615 25.6832 12.6473 25.1785L13.7472 23.7646C13.8402 23.6462 14.0084 23.6188 14.1342 23.7016L17.9109 26.22C18.0381 26.3059 18.0753 26.4766 17.9954 26.6075ZM18.8323 25.7681C18.7369 25.6174 18.6113 25.4882 18.4633 25.3886L14.6856 22.8698C14.1236 22.4991 13.3711 22.6215 12.9557 23.1512L11.8558 24.5651C11.771 24.6775 11.6165 24.7106 11.4933 24.6427L11.2828 24.5272C10.0634 23.8615 8.96358 22.9972 8.02848 21.9698C7.00139 21.0351 6.1373 19.9358 5.47166 18.717L5.35565 18.505C5.2878 18.3819 5.32085 18.2276 5.43317 18.1431L6.84707 17.0432C7.37778 16.6282 7.50011 15.8749 7.12806 15.3133L4.61021 11.535C4.51049 11.387 4.38106 11.2614 4.23025 11.166C5.431 4.8302 11.2567 0.449472 17.6768 1.05453C24.0968 1.65965 29.0014 7.05177 28.9972 13.5003C29.027 19.5117 24.7445 24.6802 18.8323 25.7681Z" fill="#8E8E8E"/>
<path d="M17.001 3.00093C17.001 2.72479 16.7772 2.50098 16.5011 2.50098C12.0817 2.50848 8.09362 5.15359 6.36767 9.22209C6.31594 9.34425 6.31494 9.482 6.3648 9.60492C6.41466 9.72784 6.51139 9.82592 6.63361 9.87754C6.69507 9.90391 6.76122 9.9175 6.82807 9.91756C7.02886 9.91762 7.21026 9.79751 7.28853 9.6126C8.8516 5.9087 12.4808 3.50105 16.501 3.50099C16.7772 3.50094 17.001 3.27706 17.001 3.00093Z" fill="#8E8E8E"/>
<path d="M20.3871 22.7124C20.2226 22.7821 20.1077 22.9342 20.0858 23.1115C20.0639 23.2888 20.1382 23.4644 20.2808 23.572C20.4234 23.6796 20.6125 23.703 20.7771 23.6333C24.8508 21.9137 27.4987 17.9217 27.4987 13.4999C27.4987 13.2238 27.2748 13 26.9987 13C26.7226 13 26.4988 13.2238 26.4988 13.4999C26.4917 17.5181 24.0864 21.1439 20.3871 22.7124Z" fill="#8E8E8E"/>
<path d="M20.7472 18.2502C20.9494 18.2501 21.1317 18.1283 21.209 17.9415C21.2863 17.7547 21.2436 17.5397 21.1007 17.3967L18.9398 15.2359C19.3023 14.7298 19.4972 14.1229 19.4973 13.5005C19.4973 13.2243 19.2735 13.0005 18.9974 13.0005C18.7212 13.0005 18.4974 13.2243 18.4974 13.5005C18.4974 14.605 17.602 15.5003 16.4975 15.5003C15.3931 15.5003 14.4977 14.605 14.4977 13.5005C14.4977 12.396 15.3931 11.5006 16.4975 11.5006C16.7737 11.5006 16.9975 11.2768 16.9975 11.0007V5.50093C16.9975 5.22479 16.7737 5.00098 16.4975 5.00098C16.2214 5.00098 15.9976 5.22485 15.9976 5.50093V10.5421C14.7777 10.7444 13.8069 11.6745 13.5526 12.8845C13.2982 14.0946 13.8125 15.3368 14.8477 16.0131C15.8829 16.6893 17.2271 16.661 18.233 15.9418L20.3938 18.1027C20.4873 18.1968 20.6144 18.2499 20.7472 18.2502Z" fill="#8E8E8E"/>
<path d="M16.6861 13.0401C16.4999 12.9618 16.2848 13.0032 16.1411 13.1451C16.097 13.1937 16.0615 13.2495 16.0361 13.3101C16.0105 13.3702 15.9969 13.4347 15.9961 13.5001C15.997 13.5319 16.0003 13.5637 16.0061 13.595C16.0107 13.6281 16.0209 13.6603 16.0361 13.69C16.0461 13.7207 16.0613 13.7495 16.0811 13.775C16.1011 13.805 16.1211 13.83 16.1411 13.855C16.2369 13.9463 16.3637 13.9981 16.4961 14C16.5614 13.9993 16.626 13.9857 16.6861 13.96C16.7466 13.9345 16.8024 13.899 16.8511 13.855C16.8711 13.83 16.8911 13.805 16.9111 13.775C16.9469 13.7202 16.9721 13.6591 16.9856 13.595C16.9918 13.5638 16.9953 13.5319 16.9961 13.5001C16.9953 13.4347 16.9817 13.3702 16.956 13.3101C16.9307 13.2495 16.8952 13.1937 16.851 13.1451C16.8023 13.101 16.7466 13.0656 16.6861 13.0401Z" fill="#8E8E8E"/>
</svg>
