<svg width="59" height="59" viewBox="0 0 59 59" fill="none" xmlns="http://www.w3.org/2000/svg">
<path d="M51.5851 31.4534C51.3737 31.4534 51.1709 31.3694 51.0214 31.2199C50.8718 31.0703 50.7878 30.8675 50.7878 30.6561V28.3439C50.7878 28.1325 50.8718 27.9297 51.0214 27.7802C51.1709 27.6306 51.3737 27.5466 51.5851 27.5466C51.7966 27.5466 51.9994 27.6306 52.1489 27.7802C52.2984 27.9297 52.3824 28.1325 52.3824 28.3439V30.6561C52.3824 30.8675 52.2984 31.0703 52.1489 31.2199C51.9994 31.3694 51.7966 31.4534 51.5851 31.4534Z" fill="#FF0100"/>
<path d="M51.5852 49.2889H18.8561C18.6447 49.2889 18.4419 49.2049 18.2924 49.0554C18.1428 48.9059 18.0588 48.7031 18.0588 48.4916V12.964C18.0588 12.7526 18.1428 12.5498 18.2924 12.4003C18.4419 12.2507 18.6447 12.1667 18.8561 12.1667H51.5852C51.7966 12.1667 51.9994 12.2507 52.149 12.4003C52.2985 12.5498 52.3825 12.7526 52.3825 12.964V22.7628C52.3825 22.9743 52.2985 23.1771 52.149 23.3266C51.9994 23.4761 51.7966 23.5601 51.5852 23.5601C51.3737 23.5601 51.1709 23.4761 51.0214 23.3266C50.8719 23.1771 50.7879 22.9743 50.7879 22.7628V13.7613H19.6534V47.6943H50.7879V36.2372C50.7879 36.0257 50.8719 35.8229 51.0214 35.6734C51.1709 35.5239 51.3737 35.4399 51.5852 35.4399C51.7966 35.4399 51.9994 35.5239 52.149 35.6734C52.2985 35.8229 52.3825 36.0257 52.3825 36.2372V48.4916C52.3825 48.7031 52.2985 48.9059 52.149 49.0554C51.9994 49.2049 51.7966 49.2889 51.5852 49.2889Z" fill="#FF0100"/>
<path d="M39.3585 57.4056C39.3004 57.4055 39.2423 57.3991 39.1855 57.3864L7.23863 50.2817C7.03227 50.2358 6.85259 50.1098 6.73911 49.9314C6.62563 49.753 6.58763 49.5369 6.63348 49.3305L14.3449 14.6537C14.3909 14.4473 14.5169 14.2676 14.6952 14.1541C14.8736 14.0407 15.0897 14.0027 15.2961 14.0485L19.0323 14.8785C19.1361 14.8996 19.2346 14.9412 19.3222 15.0008C19.4097 15.0604 19.4846 15.1369 19.5422 15.2257C19.5999 15.3146 19.6393 15.414 19.6581 15.5183C19.6769 15.6225 19.6748 15.7295 19.6518 15.8329C19.6288 15.9363 19.5854 16.0341 19.5242 16.1205C19.463 16.207 19.3852 16.2804 19.2953 16.3364C19.2054 16.3925 19.1052 16.43 19.0007 16.4469C18.8961 16.4638 18.7892 16.4597 18.6862 16.4348L15.7282 15.7779L8.36362 48.8984L38.7534 55.6571L40.3847 48.3164C40.4052 48.2121 40.4464 48.113 40.5059 48.0249C40.5653 47.9368 40.6417 47.8614 40.7307 47.8033C40.8197 47.7451 40.9194 47.7054 41.0239 47.6863C41.1285 47.6673 41.2358 47.6693 41.3396 47.6923C41.4433 47.7153 41.5414 47.7589 41.6281 47.8203C41.7148 47.8818 41.7883 47.96 41.8444 48.0503C41.9004 48.1406 41.9378 48.2412 41.9544 48.3462C41.971 48.4512 41.9664 48.5584 41.941 48.6616L40.1367 56.7813C40.0974 56.9583 39.9988 57.1167 39.8573 57.2302C39.7159 57.3437 39.5399 57.4055 39.3585 57.4056Z" fill="#FF0100"/>
<path d="M34.425 18.4892C34.2769 18.4892 34.1318 18.448 34.0058 18.3701C33.8799 18.2923 33.7781 18.1809 33.7119 18.0485C33.6456 17.916 33.6176 17.7678 33.6309 17.6203C33.6442 17.4728 33.6983 17.332 33.7871 17.2135L40.8528 7.79426C40.9797 7.6251 41.1685 7.51326 41.3779 7.48336C41.5872 7.45345 41.7998 7.50793 41.969 7.6348C42.1382 7.76168 42.25 7.95056 42.2799 8.15989C42.3098 8.36922 42.2553 8.58186 42.1285 8.75102L35.0644 18.1711C34.9899 18.2702 34.8933 18.3505 34.7823 18.4058C34.6713 18.461 34.549 18.4896 34.425 18.4892Z" fill="#FF0100"/>
<path d="M43.2064 9.57543C42.4168 9.57622 41.6447 9.34275 40.9879 8.90457C40.331 8.4664 39.819 7.84321 39.5164 7.11389C39.2139 6.38456 39.1346 5.58188 39.2884 4.80743C39.4422 4.03298 39.8224 3.32158 40.3807 2.76327C40.939 2.20495 41.6504 1.82481 42.4249 1.67097C43.1993 1.51712 44.002 1.59648 44.7313 1.899C45.4606 2.20153 46.0838 2.71361 46.522 3.37045C46.9602 4.0273 47.1936 4.79936 47.1929 5.58894C47.1908 6.64558 46.7701 7.65833 46.0229 8.40549C45.2758 9.15264 44.263 9.57332 43.2064 9.57543ZM43.2064 3.18908C42.7323 3.18829 42.2687 3.32813 41.8742 3.59092C41.4797 3.8537 41.172 4.22761 40.99 4.66533C40.8081 5.10305 40.7601 5.5849 40.8521 6.04992C40.9441 6.51494 41.1719 6.94221 41.5068 7.27768C41.8417 7.61315 42.2686 7.84173 42.7335 7.9345C43.1984 8.02727 43.6803 7.98006 44.1183 7.79884C44.5563 7.61762 44.9308 7.31053 45.1942 6.91645C45.4576 6.52236 45.5983 6.05899 45.5983 5.58496C45.5976 4.95041 45.3456 4.34198 44.8972 3.89292C44.4489 3.44386 43.8409 3.19076 43.2064 3.18908Z" fill="#FF0100"/>
<path d="M45.7449 26.3109H24.7018C24.4904 26.3109 24.2876 26.2269 24.1381 26.0774C23.9885 25.9279 23.9045 25.7251 23.9045 25.5136C23.9045 25.3021 23.9885 25.0994 24.1381 24.9498C24.2876 24.8003 24.4904 24.7163 24.7018 24.7163H45.7449C45.9564 24.7163 46.1592 24.8003 46.3087 24.9498C46.4582 25.0994 46.5422 25.3021 46.5422 25.5136C46.5422 25.7251 46.4582 25.9279 46.3087 26.0774C46.1592 26.2269 45.9564 26.3109 45.7449 26.3109Z" fill="#FF0100"/>
<path d="M45.7449 34.204H24.7018C24.4904 34.204 24.2876 34.12 24.1381 33.9705C23.9885 33.8209 23.9045 33.6181 23.9045 33.4067C23.9045 33.1952 23.9885 32.9924 24.1381 32.8429C24.2876 32.6934 24.4904 32.6094 24.7018 32.6094H45.7449C45.9564 32.6094 46.1592 32.6934 46.3087 32.8429C46.4582 32.9924 46.5422 33.1952 46.5422 33.4067C46.5422 33.6181 46.4582 33.8209 46.3087 33.9705C46.1592 34.12 45.9564 34.204 45.7449 34.204Z" fill="#FF0100"/>
<path d="M45.7449 42.0892H24.7018C24.4904 42.0892 24.2876 42.0052 24.1381 41.8557C23.9885 41.7062 23.9045 41.5034 23.9045 41.2919C23.9045 41.0805 23.9885 40.8777 24.1381 40.7282C24.2876 40.5786 24.4904 40.4946 24.7018 40.4946H45.7449C45.9564 40.4946 46.1592 40.5786 46.3087 40.7282C46.4582 40.8777 46.5422 41.0805 46.5422 41.2919C46.5422 41.5034 46.4582 41.7062 46.3087 41.8557C46.1592 42.0052 45.9564 42.0892 45.7449 42.0892Z" fill="#FF0100"/>
</svg>
