<svg width="6" height="10" viewBox="0 0 6 10" fill="none" xmlns="http://www.w3.org/2000/svg">
<path d="M5.7779 4.6098L1.32778 0.159755C1.22485 0.0567475 1.08745 0 0.94095 0C0.79445 0 0.65705 0.0567475 0.554125 0.159755L0.226412 0.487394C0.0131625 0.700889 0.0131625 1.04788 0.226412 1.26105L3.96329 4.99792L0.222263 8.73895C0.119337 8.84196 0.0625 8.97927 0.0625 9.1257C0.0625 9.27229 0.119337 9.4096 0.222263 9.51269L0.549975 9.84025C0.652987 9.94325 0.7903 10 0.936812 10C1.08331 10 1.22071 9.94325 1.32364 9.84025L5.7779 5.38614C5.88107 5.2828 5.93774 5.14484 5.93741 4.99817C5.93774 4.85094 5.88107 4.71305 5.7779 4.6098Z" fill="#131313"/>
</svg>
