<svg width="10" height="14" viewBox="0 0 10 14" fill="none" xmlns="http://www.w3.org/2000/svg">
<path d="M8.88878 6.45376L2.65859 0.223715C2.5145 0.0794144 2.32214 1.52588e-05 2.11704 1.52588e-05C1.91193 1.52588e-05 1.71958 0.0794144 1.57548 0.223715L1.11667 0.682415C0.818117 0.981215 0.818117 1.46702 1.11667 1.76552L6.3483 6.99714L1.11087 12.2346C0.966767 12.3788 0.887207 12.571 0.887207 12.776C0.887207 12.9813 0.966767 13.1735 1.11087 13.3178L1.56968 13.7764C1.71389 13.9206 1.90613 14.0001 2.11123 14.0001C2.31634 14.0001 2.50869 13.9206 2.65279 13.7764L8.88878 7.54063C9.03318 7.39597 9.11258 7.20281 9.11208 6.99748C9.11258 6.79135 9.03318 6.59831 8.88878 6.45376Z" fill="#4CA3D4"/>
</svg>
