<svg width="30" height="26" viewBox="0 0 30 26" fill="none" xmlns="http://www.w3.org/2000/svg">
<path d="M5.30777 18H6.84777V15.9H8.01777C9.58777 15.9 10.8478 15.06 10.8478 13.44C10.8478 11.99 9.83777 11 8.16777 11H5.30777V18ZM6.84777 14.53V12.39H8.03777C8.80777 12.39 9.28777 12.76 9.28777 13.45C9.28777 14.07 8.83777 14.53 8.06777 14.53H6.84777ZM11.9875 18H14.7175C16.9175 18 18.4375 16.47 18.4375 14.5C18.4375 12.51 16.9175 11 14.7175 11H11.9875V18ZM13.5275 16.61V12.39H14.7175C15.9775 12.39 16.8275 13.26 16.8275 14.5C16.8275 15.76 15.9775 16.61 14.7175 16.61H13.5275ZM19.8097 18H21.3497V15.29H24.6897V13.89H21.3497V12.4H25.1397V11H19.8097V18Z" fill="#E3151F"/>
<rect x="1" y="4" width="28" height="21" stroke="#E3151F" stroke-width="2" stroke-linejoin="round"/>
</svg>
