<svg width="70" height="70" viewBox="0 0 70 70" fill="none" xmlns="http://www.w3.org/2000/svg">
<path d="M35 0C15.6702 0 0 15.6702 0 35C0 54.3298 15.6702 70 35 70C54.3298 70 70 54.3298 70 35C69.978 15.6793 54.3207 0.0219727 35 0ZM52.5 52.5C52.5 53.1903 51.9403 53.75 51.25 53.75H18.75C18.0597 53.75 17.5 53.1903 17.5 52.5V17.5C17.5 16.8097 18.0597 16.25 18.75 16.25H21.25V15H23.75V16.25H26.25V15H28.75V16.25H31.25V15H33.75V16.25H36.25V15H38.75V16.25H41.25V15H43.75V16.25H46.25V15H48.75V16.25H51.25C51.9403 16.25 52.5 16.8097 52.5 17.5V52.5Z" fill="#E3151F"/>
<path d="M48.75 20H46.25V18.75H43.75V20H41.25V18.75H38.75V20H36.25V18.75H33.75V20H31.25V18.75H28.75V20H26.25V18.75H23.75V20H21.25V18.75H20V51.25H50V18.75H48.75V20ZM46.25 43.75H23.75V41.25H46.25V43.75ZM46.25 36.25H23.75V33.75H46.25V36.25ZM46.25 28.75H23.75V26.25H46.25V28.75Z" fill="#E3151F"/>
</svg>
