<svg width="22" height="22" viewBox="0 0 22 22" fill="none" xmlns="http://www.w3.org/2000/svg">
<path d="M11 0C4.93436 0 0 4.93436 0 11C0 17.0656 4.93436 22 11 22C17.0656 22 22 17.0656 22 11C22 4.93436 17.0656 0 11 0ZM15.8125 11.9166H11.9166V15.8125C11.9166 16.3186 11.5061 16.7291 11 16.7291C10.4939 16.7291 10.0834 16.3186 10.0834 15.8125V11.9166H6.1875C5.68144 11.9166 5.27089 11.5061 5.27089 11C5.27089 10.4939 5.68144 10.0834 6.1875 10.0834H10.0834V6.1875C10.0834 5.68144 10.4939 5.27089 11 5.27089C11.5061 5.27089 11.9166 5.68144 11.9166 6.1875V10.0834H15.8125C16.3186 10.0834 16.7291 10.4939 16.7291 11C16.7291 11.5061 16.3186 11.9166 15.8125 11.9166Z" fill="#E3171F"/>
</svg>
