<svg width="20" height="14" viewBox="0 0 20 14" fill="none" xmlns="http://www.w3.org/2000/svg">
<path d="M20 7.00004C20 6.61196 19.6855 6.29742 19.2974 6.29742L2.37745 6.29742L6.80964 1.86932C6.94445 1.73451 7.01389 1.55478 7.01389 1.37504C7.01389 1.1953 6.94445 1.01556 6.80964 0.880755C6.53595 0.607062 6.09069 0.607062 5.81699 0.880755L0.196079 6.50575C-0.0653572 6.76719 -0.0653572 7.23288 0.196079 7.4984L5.82108 13.1193C6.09477 13.393 6.54003 13.393 6.81373 13.1193C7.08742 12.8456 7.08742 12.4004 6.81373 12.1267L2.38562 7.69857L19.3015 7.69857C19.6895 7.70265 20 7.38811 20 7.00004Z" fill="#757575"/>
</svg>
