<svg width="20" height="20" viewBox="0 0 20 20" fill="none" xmlns="http://www.w3.org/2000/svg">
<path d="M17.236 5.37719L11.9746 0.115781C11.9004 0.0416406 11.7999 0 11.695 0H4.28125C3.3809 0 2.64844 0.732461 2.64844 1.63281V18.3672C2.64844 19.2675 3.3809 20 4.28125 20H15.7189C16.6193 20 17.3517 19.2675 17.3517 18.3672V5.65668C17.3517 5.55188 17.3101 5.45129 17.236 5.37719ZM12.0904 1.34957L16.0022 5.26133H12.9326C12.4682 5.26133 12.0904 4.88352 12.0904 4.41906V1.34957H12.0904ZM16.5612 18.3672C16.5612 18.8316 16.1834 19.2095 15.7189 19.2095H4.28125C3.81684 19.2095 3.43898 18.8316 3.43898 18.3672V1.63281C3.43898 1.1684 3.81684 0.790547 4.28125 0.790547H11.2998V4.41914C11.2998 5.31949 12.0322 6.05195 12.9325 6.05195H16.5612V18.3672Z" fill="white"/>
<path d="M13.162 10.0396H6.8379C6.61962 10.0396 6.44263 10.2165 6.44263 10.4348C6.44263 10.6531 6.61962 10.8301 6.8379 10.8301H13.162C13.3804 10.8301 13.5573 10.6531 13.5573 10.4348C13.5573 10.2165 13.3804 10.0396 13.162 10.0396Z" fill="white"/>
<path d="M13.162 11.8049H6.8379C6.61962 11.8049 6.44263 11.9819 6.44263 12.2002C6.44263 12.4185 6.61962 12.5955 6.8379 12.5955H13.162C13.3804 12.5955 13.5573 12.4185 13.5573 12.2002C13.5573 11.9819 13.3804 11.8049 13.162 11.8049Z" fill="white"/>
<path d="M13.162 13.5703H6.8379C6.61962 13.5703 6.44263 13.7473 6.44263 13.9656C6.44263 14.1839 6.61962 14.3609 6.8379 14.3609H13.162C13.3804 14.3609 13.5573 14.1839 13.5573 13.9656C13.5573 13.7473 13.3804 13.5703 13.162 13.5703Z" fill="white"/>
<path d="M11.1067 15.3359H6.8379C6.61962 15.3359 6.44263 15.5129 6.44263 15.7312C6.44263 15.9495 6.61962 16.1265 6.8379 16.1265H11.1067C11.325 16.1265 11.502 15.9495 11.502 15.7312C11.502 15.5129 11.325 15.3359 11.1067 15.3359Z" fill="white"/>
</svg>
