<svg width="19" height="18" viewBox="0 0 19 18" fill="none" xmlns="http://www.w3.org/2000/svg">
<g clip-path="url(#clip0)">
<path d="M18.053 8.64983C17.8933 8.42986 14.0874 3.26367 9.22653 3.26367C4.36572 3.26367 0.559641 8.42986 0.400083 8.64962C0.248801 8.85831 0.248801 9.14135 0.400083 9.35004C0.559641 9.57001 4.36572 14.7362 9.22653 14.7362C14.0874 14.7362 17.8933 9.56998 18.053 9.35022C18.2045 9.14156 18.2045 8.85831 18.053 8.64983ZM9.22653 13.5494C5.64602 13.5494 2.54491 10.1205 1.62693 8.99953C2.54373 7.87759 5.63834 4.45048 9.22653 4.45048C12.8069 4.45048 15.9078 7.87878 16.8261 9.00034C15.9094 10.1222 12.8147 13.5494 9.22653 13.5494Z" fill="#767676"/>
<path d="M9.22666 5.43945C7.27655 5.43945 5.68994 7.03671 5.68994 8.99991C5.68994 10.9631 7.27655 12.5604 9.22666 12.5604C11.1768 12.5604 12.7633 10.9631 12.7633 8.99991C12.7633 7.03671 11.1768 5.43945 9.22666 5.43945ZM9.22666 11.3735C7.92651 11.3735 6.86887 10.3087 6.86887 8.99991C6.86887 7.69107 7.92655 6.62629 9.22666 6.62629C10.5267 6.62629 11.5844 7.69107 11.5844 8.99991C11.5844 10.3087 10.5268 11.3735 9.22666 11.3735Z" fill="#767676"/>
</g>
<defs>
<clipPath id="clip0">
<rect width="17.88" height="18" fill="white" transform="translate(0.286621)"/>
</clipPath>
</defs>
</svg>
