<svg width="22" height="32" viewBox="0 0 22 32" fill="none" xmlns="http://www.w3.org/2000/svg">
<path d="M10.9999 32C11.6208 32 12.1241 31.4967 12.1241 30.8758L12.1241 3.80392L19.209 10.8954C19.4247 11.1111 19.7123 11.2222 19.9999 11.2222C20.2875 11.2222 20.5751 11.1111 20.7907 10.8954C21.2287 10.4575 21.2287 9.7451 20.7907 9.30719L11.7907 0.313728C11.3724 -0.104572 10.6273 -0.104572 10.2025 0.313728L1.20905 9.31373C0.771138 9.75163 0.771138 10.4641 1.20905 10.902C1.64696 11.3399 2.35937 11.3399 2.79728 10.902L9.88225 3.81699L9.88225 30.8824C9.87571 31.5033 10.379 32 10.9999 32Z" fill="white"/>
</svg>
